<?xml version="1.0" encoding="UTF-8" standalone="no"?>
<!-- Created with Inkscape (http://www.inkscape.org/) -->

<svg
   xmlns:dc="http://purl.org/dc/elements/1.1/"
   xmlns:cc="http://creativecommons.org/ns#"
   xmlns:rdf="http://www.w3.org/1999/02/22-rdf-syntax-ns#"
   xmlns:svg="http://www.w3.org/2000/svg"
   xmlns="http://www.w3.org/2000/svg"
   xmlns:sodipodi="http://sodipodi.sourceforge.net/DTD/sodipodi-0.dtd"
   xmlns:inkscape="http://www.inkscape.org/namespaces/inkscape"
   width="191.00362mm"
   height="39.493973mm"
   viewBox="0 0 676.78447 139.93927"
   id="svg2"
   version="1.1"
   inkscape:version="0.91 r13725"
   sodipodi:docname="we-the-builders-logo.svg">
  <defs
     id="defs4" />
  <sodipodi:namedview
     id="base"
     pagecolor="#ffffff"
     bordercolor="#666666"
     borderopacity="1.0"
     inkscape:pageopacity="0.0"
     inkscape:pageshadow="2"
     inkscape:zoom="1.4"
     inkscape:cx="440.51523"
     inkscape:cy="94.74981"
     inkscape:document-units="px"
     inkscape:current-layer="layer1"
     showgrid="false"
     fit-margin-top="0"
     fit-margin-left="0"
     fit-margin-right="0"
     fit-margin-bottom="0"
     inkscape:window-width="2560"
     inkscape:window-height="1391"
     inkscape:window-x="0"
     inkscape:window-y="1"
     inkscape:window-maximized="1" />
  <metadata
     id="metadata7">
    <rdf:RDF>
      <cc:Work
         rdf:about="">
        <dc:format>image/svg+xml</dc:format>
        <dc:type
           rdf:resource="http://purl.org/dc/dcmitype/StillImage" />
        <dc:title></dc:title>
      </cc:Work>
    </rdf:RDF>
  </metadata>
  <g
     inkscape:label="Layer 1"
     inkscape:groupmode="layer"
     id="layer1"
     transform="translate(-34.308565,-180.183)">
    <g
       style="font-style:normal;font-variant:normal;font-weight:normal;font-stretch:normal;font-size:30px;line-height:125%;font-family:'P22 Declaration';-inkscape-font-specification:'P22 Declaration, Normal';text-align:start;letter-spacing:0px;word-spacing:0px;writing-mode:lr-tb;text-anchor:start;fill:#000000;fill-opacity:1;stroke:none;stroke-width:1px;stroke-linecap:butt;stroke-linejoin:miter;stroke-opacity:1"
       id="text3336"
       transform="matrix(4.1648595,0,0,4.1648595,-533.99247,-1039.9158)">
      <path
         d="m 151.48143,309.45077 c -0.33,-0.75 -1.2,-2.94 -1.62,-3.21 0,-0.18 -0.45,-0.66 -0.57,-0.72 l -0.24,-0.24 -0.03,0.24 c -0.12,-0.03 -0.24,-0.24 -0.24,-0.39 l -0.87,-0.45 c -0.03,0.03 -0.06,0.03 -0.12,0.03 -0.18,0 -0.39,-0.12 -0.54,-0.12 -0.42,0 -0.66,-0.3 -1.17,-0.3 -0.42,0 -0.81,-0.12 -1.17,-0.12 0,-0.03 -0.03,-0.06 -0.09,-0.06 -0.06,0 -0.12,0.03 -0.15,0.03 -1.23,-0.12 -2.4,-0.33 -3.63,-0.33 l -0.03,-0.09 c -0.09,0 -0.15,0.09 -0.24,0.09 l -0.09,-0.12 c -0.06,0 -0.12,0.03 -0.18,0.03 -0.36,0 -0.84,-0.21 -1.05,-0.3 -0.15,-0.21 -0.48,-0.33 -0.72,-0.54 -0.6,-0.03 -1.68,-1.44 -1.71,-1.74 -0.03,-0.18 -0.03,-0.39 -0.03,-0.6 0,-0.48 0.06,-1.02 0.24,-1.77 l -0.09,-0.18 -0.27,0.03 c -0.24,0.93 -0.42,2.04 -0.42,2.91 0,0.15 0.03,0.3 0.21,0.39 -0.03,0.06 -0.03,0.09 -0.03,0.15 0,0.39 0.3,0.96 0.54,1.26 0.99,1.56 2.07,2.49 3.75,2.85 l 0.24,-0.03 c 0.45,0 1.11,0.36 1.68,0.36 0.66,0 0.9,0 1.53,0.15 0.54,0 0.93,0.18 1.35,0.24 l 0.24,-0.03 0.63,0.15 c 0.42,0 1.14,0.12 1.56,0.21 0.03,0 0.12,0.09 0.18,0.09 0.54,0 1.53,0.9 1.8,1.26 0.9,0.87 1.35,3.69 1.35,4.74 0,0.36 -0.06,0.75 -0.06,1.11 l 0,0.18 -0.09,0.12 c -0.18,0.57 -0.27,1.17 -0.27,1.77 l 0,0.27 -0.09,0.45 c -1.08,-0.18 -0.81,-2.34 -1.29,-2.34 -0.18,0 -0.27,0.33 -0.33,0.48 0.12,1.56 0.21,2.07 0.93,3.33 l 0.15,0.06 0.12,0.42 c 0.42,0.42 0.63,0.93 1.14,1.35 l 0.06,0.15 c 0.78,0.09 4.23,1.92 4.56,2.94 0.03,0.12 0.06,0.24 0.06,0.36 0,0.33 0.12,0.42 0.36,0.42 0.18,-0.15 0.18,-0.48 0.54,-0.99 0,-0.69 0.45,-3.51 1.35,-3.51 0.42,0.24 0.87,0.45 1.35,0.63 0.03,0.06 2.64,0.9 3.45,1.98 0.09,0.15 0.27,1.38 0.42,1.71 0,0.27 -0.21,1.26 -0.21,1.65 0.39,-0.03 1.08,-0.96 1.41,-1.95 0,0 0.36,-0.42 0.42,-0.84 l 0.15,-0.42 0.06,-0.84 c 0.12,-0.15 0.18,-0.39 0.21,-0.57 l 0.15,-0.09 c 0.36,-0.66 0.6,-1.77 0.99,-2.31 l 0,-0.3 0.21,-0.21 c 0.63,-1.74 0.75,-2.97 1.2,-4.65 l -0.15,-0.27 c 0.03,-0.24 0.15,-0.54 0.15,-0.78 0,-1.08 -0.21,-2.91 -0.99,-3.75 -0.15,-0.84 -0.69,-0.81 -1.14,-1.35 l -0.33,-0.06 -0.45,-0.36 c -0.6,-0.12 -1.02,-0.48 -1.53,-0.78 -0.54,-0.33 -0.9,-0.24 -1.2,-0.39 -0.81,-0.39 -0.99,-0.54 -1.44,-2.01 -0.03,-0.06 -0.03,-0.12 -0.03,-0.21 l 0,-0.27 c 0,-0.09 0,-0.21 -0.03,-0.3 l -0.27,0 c 0,0.03 -0.03,0.06 -0.03,0.09 -0.15,0.33 -0.33,0.75 -0.33,1.11 0,0.12 0.03,0.21 0.06,0.3 l 0,0.21 c 0,1.53 -0.87,3.33 -0.84,3.45 -0.27,0.3 -0.42,0.54 -0.48,0.84 -0.48,0 -0.45,-0.33 -0.63,-0.54 -1.38,-1.65 -3.06,-2.58 -4.53,-4.05 -0.48,-0.48 -0.45,-1.2 -0.63,-1.83 l -0.15,-0.06 -0.21,0.06 c -0.24,0.33 -0.3,0.72 -0.3,1.11 0,0.48 0.09,0.96 0.09,1.38 0,0.27 -0.36,0.87 -0.42,1.2 -0.3,0.24 -0.6,2.37 -1.14,3.03 z m 7.83,8.46 c 0,-0.48 0.36,-0.81 0.42,-1.26 0.06,-0.33 0.06,-1.14 0.24,-1.41 -0.03,-0.09 -0.45,-4.71 -0.45,-5.22 0,-0.36 0.15,-0.39 0.27,-0.66 0.39,-0.9 0.78,-1.77 1.11,-2.7 0.45,0.51 1.02,1.14 1.59,1.5 l 0.15,0.24 c 0.18,0.09 0.39,0.15 0.57,0.21 l 1.47,0.84 c 0.63,0.24 0.66,0.87 1.41,1.11 0.84,1.23 0.57,1.89 0.99,3.06 l 0.42,0.27 -0.21,0.06 c 0,0.18 0.06,0.33 0.09,0.51 l -0.09,0.15 c 0.06,0.18 0.09,0.36 0.09,0.54 0,0.48 -0.15,1.02 -0.15,1.5 l 0.15,0.06 c -0.39,0.18 -0.51,1.23 -0.57,1.56 l -0.15,0.21 0,0.27 -0.15,0.21 -0.06,0.21 -0.84,1.35 0,0.15 c -0.09,0.18 -0.18,0.33 -0.3,0.48 -0.21,0 -0.93,-0.87 -1.05,-0.99 -0.63,-0.63 -4.2,-1.62 -4.95,-2.1 l 0,-0.15 z m -3.6,2.25 0,-0.21 c -0.84,-0.51 -3.57,-1.59 -4.17,-2.31 -0.06,-0.27 -0.06,-0.51 -0.06,-0.78 0,-0.48 0.45,-1.08 0.45,-1.68 0,-0.15 -0.03,-0.3 -0.09,-0.45 0.21,-0.63 0.21,-1.47 0.21,-2.04 0,-0.75 -0.21,-1.53 -0.21,-2.25 0,-1.38 0.9,-2.85 1.35,-4.11 0.54,0.48 1.08,1.17 1.47,1.71 0.36,0.51 1.11,0.36 1.56,1.2 l 0.42,0.21 c 0.54,1.32 1.86,2.46 2.04,4.59 l 0.09,0.12 0,0.12 c 0,0.24 0.06,0.42 0.06,0.66 0,0.72 -0.24,1.8 -0.45,2.49 -0.27,0 -0.33,-0.27 -0.33,-0.54 0,-0.21 0.03,-0.39 0.03,-0.54 0,-0.12 -0.03,-0.21 -0.09,-0.21 -0.54,0 -0.6,1.17 -0.6,1.62 l 0,0.12 c 0.18,0.39 0.39,1.05 0.6,1.53 -0.03,0.18 -0.09,0.3 -0.21,0.42 -0.12,0.36 -0.45,0.87 -0.66,1.53 -0.39,-0.27 -0.84,-1.23 -1.29,-1.23 -0.03,0 -0.09,0.03 -0.12,0.03 z m -13.17,-14.46 -0.09,-0.24 0.3,-0.09 -0.21,0.33 z m 11.4,0.09 c 0.06,0 0.06,0.09 0.06,0.12 0,0.06 0,0.09 -0.06,0.09 -0.03,0 -0.12,-0.09 -0.12,-0.12 0,-0.06 0.03,-0.09 0.12,-0.09 z m 5.31,7.71 0,0.24 -0.21,0 0.21,-0.24 z m -1.17,4.71 c 0.03,0 0.09,0.09 0.09,0.12 0,0.06 -0.06,0.09 -0.09,0.09 -0.06,0 -0.06,-0.03 -0.06,-0.09 0,-0.03 0,-0.12 0.06,-0.12 z m -0.93,-9.42 c 0.03,0 0.09,0.09 0.09,0.12 0,0.06 -0.06,0.09 -0.09,0.09 -0.06,0 -0.06,-0.03 -0.06,-0.09 0,-0.03 0,-0.12 0.06,-0.12 z m -3.3,-3.63 c 0.03,0 0.09,0.09 0.09,0.12 0,0.06 -0.06,0.09 -0.09,0.09 -0.06,0 -0.06,-0.03 -0.06,-0.09 0,-0.03 0,-0.12 0.06,-0.12 z m 5.31,14.19 c 0.06,0 0.06,0.09 0.06,0.12 0,0.06 -0.06,0.09 -0.06,0.09 -0.03,0 -0.09,-0.09 -0.09,-0.12 0,-0.06 0.06,-0.09 0.09,-0.09 z m 6.81,-9.3 c 0.06,0 0.06,0.06 0.06,0.09 0,0.06 0,0.09 -0.06,0.09 -0.03,0 -0.09,-0.03 -0.09,-0.09 0,-0.03 0,-0.09 0.09,-0.09 z m -28.47,-7.47 c 0.06,0 0.06,0.06 0.06,0.09 0,0.06 0,0.09 -0.06,0.09 -0.03,0 -0.09,-0.03 -0.09,-0.09 0,-0.03 0,-0.09 0.09,-0.09 z m 19.5,19.47 0,-0.15 0.15,0 0,0.15 -0.15,0 z m -1.11,-15.63 c 0,0 0.06,0.09 0.06,0.12 0,0.06 -0.06,0.09 -0.06,0.09 -0.03,0 -0.09,-0.09 -0.09,-0.12 0,-0.06 0.06,-0.09 0.09,-0.09 z m 5.88,-0.39 c 0,0 0.06,0.06 0.06,0.09 0,0.06 0,0.09 -0.06,0.09 -0.03,0 -0.09,-0.03 -0.09,-0.09 0,-0.03 0,-0.09 0.09,-0.09 z m 3.99,3.72 c 0,0 0.06,0.06 0.06,0.09 0,0.06 0,0.09 -0.06,0.09 -0.03,0 -0.09,-0.03 -0.09,-0.09 0,-0.03 0,-0.09 0.09,-0.09 z m -1.71,11.4 c 0,0 0.06,0.06 0.06,0.09 0,0.06 0,0.09 -0.06,0.09 -0.03,0 -0.09,-0.03 -0.09,-0.09 0,-0.03 0,-0.09 0.09,-0.09 z m -15.54,-14.25 c 0,0 0.06,0.06 0.06,0.09 0,0.06 0,0.09 -0.06,0.09 -0.03,0 -0.09,-0.03 -0.09,-0.09 0,-0.03 0,-0.09 0.09,-0.09 z m -2.82,-1.8 c 0.06,0 0.06,0.06 0.06,0.09 0,0.06 0,0.09 -0.06,0.09 -0.03,0 -0.09,-0.03 -0.09,-0.09 0,-0.03 0.06,-0.09 0.09,-0.09 z m 16.65,14.73 c 0,0 0.06,0.06 0.06,0.09 0,0.06 -0.06,0.09 -0.06,0.09 -0.09,0 -0.09,-0.03 -0.09,-0.09 0,-0.03 0,-0.09 0.09,-0.09 z m -7.98,1.59 0.06,-0.12 0.15,-0.06 -0.06,0.18 -0.15,0 z m 3.42,-11.73 c 0.03,0 0.09,0.06 0.09,0.09 0,0.06 -0.06,0.09 -0.09,0.09 -0.06,0 -0.06,-0.03 -0.06,-0.09 0,-0.03 0,-0.09 0.06,-0.09 z m -8.04,6.51 c 0.03,0 0.09,0.06 0.09,0.09 0,0.06 -0.06,0.09 -0.09,0.09 -0.06,0 -0.06,-0.03 -0.06,-0.09 0,-0.03 0,-0.09 0.06,-0.09 z m 15.27,6.18 c 0.03,0 0.09,0.06 0.09,0.09 0,0.06 -0.06,0.09 -0.09,0.09 -0.06,0 -0.06,-0.03 -0.06,-0.09 0,-0.03 0,-0.09 0.06,-0.09 z m -13.2,-3.27 0.03,-0.12 0.21,-0.03 -0.09,0.12 -0.15,0.03 z m 12.96,3.78 c 0.06,0 0.06,0.06 0.06,0.09 0,0.06 0,0.09 -0.06,0.09 -0.03,0 -0.09,-0.09 -0.09,-0.12 l 0.09,-0.06 z m -4.86,-3.99 c 0.03,0 0.09,0.06 0.09,0.09 0,0.06 -0.06,0.09 -0.09,0.09 -0.06,0 -0.06,-0.03 -0.06,-0.09 l 0.06,-0.09 z m 3.06,-11.7 c 0.03,0 0.09,0.06 0.09,0.09 0,0.06 -0.06,0.09 -0.09,0.09 -0.06,0 -0.06,-0.03 -0.06,-0.09 l 0.06,-0.09 z m -24.54,-4.23 c 0.03,0 0.09,0.06 0.09,0.09 0,0.06 -0.06,0.09 -0.09,0.09 -0.06,0 -0.06,-0.03 -0.06,-0.09 l 0.06,-0.09 z m 13.32,15.87 0.03,-0.09 0.12,0.03 0.03,0.12 -0.18,-0.06 z m 7.65,-6.78 0,0.15 c -0.03,0 -0.15,0 -0.15,-0.03 l 0.15,-0.12 z m -13.14,-7.44 c 0.03,0 0.06,0.06 0.06,0.09 0,0.03 -0.03,0.06 -0.06,0.06 -0.03,0 -0.06,-0.03 -0.06,-0.06 0,-0.03 0.03,-0.09 0.06,-0.09 z m 21.69,9.42 -0.24,0.12 c 0.06,-0.12 0.15,-0.12 0.24,-0.12 z m -25.5,-21 c 0,0.03 0.06,0.06 0.09,0.06 l -0.03,-0.15 -0.06,0.09 z m 0.36,11.28 0,0.15 c -0.03,0 -0.06,-0.03 -0.06,-0.06 l 0.06,-0.09 z"
         style="font-style:normal;font-variant:normal;font-weight:normal;font-stretch:normal;font-size:30px;line-height:125%;font-family:'P22 Declaration';-inkscape-font-specification:'P22 Declaration, Normal';text-align:start;writing-mode:lr-tb;text-anchor:start"
         id="path3341"
         inkscape:connector-curvature="0" />
      <path
         d="m 170.99643,318.66077 0.06,0.27 c 0.06,0.42 0.18,0.93 0.24,1.41 l 0,0.39 c 0,0.06 0.06,0.24 0.06,0.3 0,0.21 -0.03,0.42 -0.03,0.63 0,0.27 0.06,0.54 0.24,0.81 l 0.18,0.24 c 0.24,0.3 0.18,0.42 0.6,0.63 0.39,0.18 0.87,0.24 1.26,0.36 0,0 0.18,0.06 0.24,0.06 0.24,0 0.54,-0.45 0.81,-0.63 0.06,0 0.18,-0.12 0.18,-0.12 l 0.18,-0.18 c 0.06,0 0.33,-0.24 0.39,-0.24 l 0.36,-0.39 0.12,-0.06 0.18,-0.24 0.39,-0.3 0.06,-0.15 0.18,-0.24 c 0,-0.06 0.24,-0.3 0.24,-0.36 0.12,-0.18 0.39,-0.27 0.57,-0.51 0.06,-0.12 0.06,-0.36 0.06,-0.42 -0.3,0 -0.81,0.54 -1.05,0.75 l -0.18,0.12 c -0.27,0.24 -0.39,0.48 -0.63,0.66 l -0.12,0.09 0,0.12 c -0.06,0.06 -0.45,0.18 -0.51,0.24 l -0.12,0.12 -1.05,0 c 0,0 -0.06,-0.06 -0.12,-0.06 -0.06,0 -0.18,-0.12 -0.18,-0.12 -0.06,-0.06 -0.33,-0.24 -0.33,-0.3 -0.06,-0.09 -0.18,-0.33 -0.18,-0.39 l 0,-0.36 c 0,-0.06 -0.06,-0.45 -0.06,-0.51 l 0,-0.27 c 0,-0.06 0,-0.12 -0.06,-0.21 l 0,-1.02 c 0.12,-0.06 0.24,-0.18 0.3,-0.18 0.27,-0.18 0.51,-0.42 0.75,-0.6 0.39,-0.27 0.75,-0.57 1.11,-0.81 0.21,-0.12 0.33,-0.12 0.45,-0.33 0.24,-0.3 0.48,-0.72 0.69,-1.05 0,-0.21 0.12,-0.33 0.12,-0.48 l 0,-0.39 0.06,-0.18 c 0.06,-0.3 0.18,-0.75 0.18,-1.11 0,-0.27 -0.06,-0.69 -0.24,-0.87 l -0.57,-0.57 c 0,0 -0.12,-0.12 -0.18,-0.12 -0.18,-0.12 -0.42,-0.12 -0.57,-0.3 -0.03,-0.06 -0.03,-0.12 -0.03,-0.21 0,-0.09 0.06,-0.21 0.06,-0.3 0,-0.06 -0.03,-0.12 -0.15,-0.12 -0.15,0 -0.33,0.24 -0.87,0.51 -0.33,0.27 -0.69,0.36 -0.93,0.6 l -0.06,0.12 -0.12,0.06 c -0.06,0.09 -0.48,0.51 -0.63,0.63 -0.18,0.18 -0.24,0.57 -0.54,0.69 -0.06,0.12 -0.45,0.63 -0.51,0.75 -0.3,0.42 -0.3,0.93 -0.3,1.47 l 0,0.57 c 0,0.06 0.06,0.24 0.06,0.3 l 0,1.08 0.06,0.24 c 0,0.06 -0.12,0.42 -0.12,0.48 z m 1.8,-2.1 0,-2.91 c 0,-0.06 0.18,-0.33 0.24,-0.45 0.06,-0.06 0.24,-0.3 0.33,-0.3 l 0.12,0 c 0.24,0 0.3,0.12 0.48,0.24 l 0.3,0.18 c 0.39,0.27 0.51,0.81 0.51,1.26 0,0.18 -0.12,0.3 -0.12,0.48 0,0.21 0.06,0.39 0.06,0.63 0,0.36 -0.12,0.87 -0.36,1.17 l -0.21,0.21 -0.06,0.18 -0.42,0.42 -0.12,0.33 c -0.12,0.12 -0.45,0.36 -0.51,0.36 l -0.12,0 c 0,0 -0.06,-0.24 -0.06,-0.3 l 0,-0.93 c 0,-0.06 -0.06,-0.51 -0.06,-0.57 z m -0.63,5.7 c -0.03,0.06 -0.09,0.12 -0.12,0.12 -0.03,0 -0.09,-0.06 -0.09,-0.06 0.03,-0.06 0.06,-0.12 0.09,-0.12 0.03,0 0.12,0.06 0.12,0.06 z m 0.15,-1.89 0.12,-0.06 0.09,0.06 -0.12,0.12 -0.09,-0.12 z m 3.57,-7.32 0.09,-0.09 0.09,0.09 -0.09,0.09 -0.09,-0.09 z m -3.33,7.02 0.09,-0.09 0.09,0.09 -0.09,0.09 -0.09,-0.09 z m 2.01,-7.26 -0.09,-0.09 0.09,-0.09 0.06,0.09 -0.06,0.09 z m 0.69,2.43 -0.09,-0.09 0.09,-0.09 0.06,0.09 -0.06,0.09 z"
         style="font-style:normal;font-variant:normal;font-weight:normal;font-stretch:normal;font-size:30px;line-height:125%;font-family:'P22 Declaration';-inkscape-font-specification:'P22 Declaration, Normal';text-align:start;writing-mode:lr-tb;text-anchor:start"
         id="path3343"
         inkscape:connector-curvature="0" />
      <path
         d="m 185.53893,323.46077 c 0.51,0 0.93,0.27 1.26,0.54 0.09,0.09 0.24,0.27 0.24,0.27 l 0,0.78 c 0.42,0 0.42,-0.15 0.63,-0.42 0.12,-0.12 0.75,-0.75 0.9,-0.87 0.63,-0.12 0.72,-0.39 1.2,-1.11 0.33,-0.54 1.47,-1.5 1.47,-1.86 -0.51,0 -0.96,0.63 -1.26,0.87 -0.03,0.03 -0.15,0.18 -0.21,0.18 0,0.03 0.09,0.15 0.09,0.21 0,0.06 -0.09,0.12 -0.12,0.12 0,-0.06 -0.06,-0.12 -0.09,-0.12 -0.03,0 -0.66,0.78 -0.87,0.78 -0.18,0 -0.3,-0.09 -0.42,-0.15 l -0.51,-0.36 c -0.09,-0.06 -0.12,-0.24 -0.12,-0.42 l 0,-0.36 c 0,-0.48 -0.18,-1.05 -0.18,-1.53 0,-0.48 0.24,-0.96 0.24,-1.47 0,-0.06 -0.03,-0.66 -0.06,-0.75 l 0,-0.54 c 0,-0.21 0,-0.54 0.06,-0.75 l 0,-0.69 c 0,-0.78 0.03,-1.53 0.15,-2.31 0,-0.06 0.15,-0.06 0.21,-0.06 0.21,0 0.42,0.06 0.63,0.06 0.42,0 1.71,-0.78 1.71,-1.26 l 0,-0.15 c -0.12,-0.09 -0.33,-0.09 -0.54,-0.09 l -0.27,0 c -0.06,0 -0.15,0.03 -0.21,0.03 -0.3,0 -0.63,-0.09 -0.69,-0.09 -0.03,0 -0.12,-0.06 -0.12,-0.06 -0.33,-0.03 -0.63,0.06 -0.63,-0.42 0,-0.36 0.12,-1.47 0.57,-1.65 0.45,-0.42 0.93,-0.87 1.29,-1.35 0,-0.03 0.03,-0.09 0.03,-0.12 0,-0.06 -0.03,-0.09 -0.15,-0.09 -0.54,0 -0.84,0.57 -1.29,0.72 -0.81,0.69 -1.86,1.35 -1.95,2.52 l -0.03,0.09 -0.3,0 c -0.24,0 -0.48,0 -0.72,0.03 0,0.06 -0.03,0.09 -0.03,0.09 -0.39,0.18 -0.24,0.39 -0.51,0.69 -0.24,0.33 -0.51,0.33 -0.51,0.69 0,0.06 0.21,0.3 0.36,0.3 0.03,0 0.57,-0.12 0.84,-0.12 0.54,0 0.57,1.5 0.57,1.86 0,0.24 -0.15,2.16 -0.24,2.25 l 0,1.11 c -0.06,0.03 -0.09,0.27 -0.09,0.33 0,0.33 0.12,0.72 0.12,1.05 0,0.03 -0.03,0.54 -0.03,0.63 0,0.06 0.03,0.45 0.03,0.63 0,0.42 -0.09,0.72 -0.12,1.08 -0.72,0.42 -1.05,0.72 -1.65,1.32 -0.03,0.06 -0.03,0.15 -0.03,0.24 0,0.12 0.12,0.21 0.3,0.21 0.36,0 0.63,-0.51 1.05,-0.51 z m 1.68,-5.52 -0.09,0.09 -0.12,-0.09 0.12,-0.12 0.09,0.12 z m 1.41,5.52 -0.06,0.09 -0.12,-0.12 0.12,-0.09 0.06,0.12 z m -1.44,-12.63 -0.09,0.09 -0.06,-0.09 0.06,-0.15 0.09,0.15 z m 3.69,10.35 -0.09,0.09 -0.09,-0.09 0.09,-0.09 0.09,0.09 z m -3.36,-10.29 -0.09,0.09 -0.09,-0.09 0.09,-0.09 0.09,0.09 z m 1.74,1.44 -0.06,0.09 -0.09,-0.09 0.09,-0.12 0.06,0.12 z m -3.57,-0.48 -0.06,0.09 -0.09,-0.09 0.09,-0.12 0.06,0.12 z m 4.11,0.9 -0.06,0.09 -0.09,-0.09 0.09,-0.12 0.06,0.12 z m -1.38,-3.63 0.06,0.09 -0.09,0.09 -0.06,-0.12 0.09,-0.06 z m -1.32,1.44 -0.06,0.09 -0.09,-0.09 0.09,-0.09 0.06,0.09 z m 3.24,1.68 -0.06,0.09 -0.09,-0.09 0.09,-0.09 0.06,0.09 z m -4.92,0.12 -0.06,0.09 -0.09,-0.09 0.09,-0.09 0.06,0.09 z m 4.86,9.15 0.09,0.09 -0.09,0.09 -0.06,-0.09 0.06,-0.09 z m -2.55,-8.94 -0.09,-0.06 0.12,-0.09 0.06,0.09 -0.09,0.06 z m -1.05,-0.3 -0.06,0.09 -0.09,-0.09 0.09,-0.09 0.06,0.09 z m 0.6,-1.68 -0.06,0.09 -0.09,-0.09 0.09,-0.09 0.06,0.09 z m 0.81,-0.93 0.09,0.09 -0.09,0.09 -0.06,-0.09 0.06,-0.09 z m -1.41,5.13 -0.06,0.09 -0.09,-0.09 0.09,-0.09 0.06,0.09 z m 0.12,-1.8 -0.06,0.09 -0.09,-0.12 0.09,-0.06 0.06,0.09 z m 0.24,10.23 0.09,0.09 -0.09,0.09 -0.06,-0.09 0.06,-0.09 z m -0.09,0.57 -0.06,0.09 -0.09,-0.09 0.09,-0.09 0.06,0.09 z m 1.44,-14.34 -0.06,0.09 -0.09,-0.09 0.09,-0.09 0.06,0.09 z m -2.52,13.32 0.09,0.09 -0.09,0.09 -0.06,-0.09 0.06,-0.09 z m 0.93,-11.01 -0.06,0.09 -0.09,-0.12 0.09,-0.06 0.06,0.09 z m -0.96,0.3 -0.03,0.09 -0.12,-0.06 0.06,-0.09 0.09,0.06 z m 0.9,8.97 -0.03,0.09 -0.09,-0.12 0.09,-0.06 0.03,0.09 z m 2.88,1.32 0.09,0.09 -0.09,0.09 -0.03,-0.09 0.03,-0.09 z m -2.97,-1.14 -0.03,0.09 -0.09,-0.09 0.09,-0.09 0.03,0.09 z m -2.13,2.25 -0.06,-0.09 0.15,0 -0.09,0.09 z"
         style="font-style:normal;font-variant:normal;font-weight:normal;font-stretch:normal;font-size:30px;line-height:125%;font-family:'P22 Declaration';-inkscape-font-specification:'P22 Declaration, Normal';text-align:start;writing-mode:lr-tb;text-anchor:start"
         id="path3345"
         inkscape:connector-curvature="0" />
      <path
         d="m 196.40736,312.69077 c -0.51,0.51 -1.11,1.05 -1.53,1.53 l 0,-0.81 c 0,-0.03 -0.06,-0.15 -0.06,-0.21 l 0,-1.92 c -0.03,-0.09 -0.06,-0.93 -0.06,-1.05 0,-0.09 0.03,-0.69 0.06,-0.75 l 0,-0.48 c 0,-0.24 0,-0.45 -0.12,-0.72 0,-0.12 -0.03,-0.63 -0.03,-0.75 0,-0.45 0,-1.92 0.33,-2.31 0.18,-0.15 0.45,-0.21 0.66,-0.3 0.63,-0.24 1.26,-0.48 1.95,-0.48 0.36,0 0.87,0.66 0.87,1.08 0,0.45 -0.36,0.84 -0.66,1.17 0,0.21 0.18,0.3 0.3,0.3 0.03,0 0.15,-0.03 0.21,-0.09 0.06,-0.03 0.69,-0.51 0.78,-0.54 0.72,-0.45 1.02,-1.23 1.02,-2.07 l 0,-0.42 c -0.12,-0.06 -0.12,-0.21 -0.21,-0.24 -0.54,-0.42 -0.81,-0.6 -1.47,-0.6 -1.68,0 -3.45,1.26 -4.5,2.46 -0.54,0.57 -1.38,1.32 -1.38,2.16 0,0.99 0.21,1.89 0.21,2.88 0,0.06 -0.09,0.33 -0.09,0.48 0,0.06 0.03,0.18 0.09,0.21 l 0,0.15 c 0,0 0,0.21 -0.03,0.81 0,0.18 0.03,0.36 0.03,0.51 l 0.03,1.23 c 0.09,0.54 0.12,1.02 0.12,1.53 l 0,1.62 c 0,0.75 0.15,1.41 0.15,2.13 l 0,0.18 0.03,0.09 0.09,0.87 c -0.09,0.18 -0.21,1.32 -0.39,1.44 -0.51,0.33 -0.84,0.51 -1.29,0.96 -0.21,0.21 -0.51,0.72 -0.51,1.02 0,0.12 0.03,0.12 0.21,0.12 0.36,0 0.72,-0.9 1.53,-0.9 0.72,0 1.2,0.75 1.2,1.41 0,0.48 -0.51,0.81 -0.51,1.2 0,0.09 0.06,0.09 0.12,0.09 0.51,0 1.23,-1.56 1.56,-2.07 0.39,-0.54 1.02,-0.96 1.44,-1.47 0.09,-0.12 0.09,-0.27 0.09,-0.42 -0.39,0 -0.63,0.42 -0.99,0.57 -0.03,-0.09 -0.27,-0.36 -0.36,-0.39 -0.12,-0.18 -0.6,-0.33 -0.6,-0.63 l 0,-1.02 c 0,-0.03 -0.09,-0.21 -0.12,-0.24 0.18,-0.84 0.3,-1.71 0.3,-2.61 0,-0.63 -0.18,-1.26 -0.18,-1.89 0,-0.21 0.06,-0.54 0.18,-0.66 l 1.14,-1.17 c 0.06,-0.09 0.81,-0.39 1.02,-0.48 0.6,0 1.17,0.48 1.53,0.9 l 0.24,1.05 0,0.24 c 0,0.24 -0.06,0.48 -0.06,0.72 0,0.03 0.12,0.51 0.12,0.54 0,0.09 -0.03,0.21 -0.03,0.36 0,0.15 0.03,0.3 0.12,0.39 -0.06,0.51 -0.18,1.17 -0.18,1.74 0,0.15 0.09,0.24 0.09,0.45 0,0.03 -0.06,0.24 -0.06,0.3 0,0.3 0.09,0.87 0.21,1.05 0,0.57 0.09,0.93 0.09,1.47 0,0.36 -0.03,0.99 -0.24,1.35 -0.18,0.33 -0.42,0.63 -0.51,0.99 l -0.03,-0.09 c -0.3,0.39 -0.39,0.72 -0.78,1.02 -0.24,0.21 -0.99,0.39 -0.99,0.75 0,0.06 0,0.09 0.09,0.12 0.12,-0.06 0.84,-0.54 0.96,-0.63 0.3,-0.15 0.33,-0.06 0.63,-0.36 0.12,-0.09 0.84,-0.84 1.05,-1.05 0.03,-0.06 0.3,-0.33 0.33,-0.39 0.21,-0.21 0.24,-0.15 0.42,-0.51 0.18,-0.24 0.24,-0.54 0.39,-0.78 0.06,-0.18 0.21,-0.3 0.24,-0.51 0.09,-0.33 0.03,-0.66 0.09,-1.05 0,-0.45 0.12,-0.93 0.12,-1.35 0,-0.24 -0.09,-0.51 -0.09,-0.75 0,-0.3 0.09,-0.54 0.09,-0.84 0,-0.18 -0.09,-0.33 -0.09,-0.54 0,-0.12 0.09,-0.3 0.09,-0.48 0,-0.84 -0.33,-1.62 -0.33,-2.52 0,-0.21 0.09,-0.42 0.09,-0.63 0,-0.84 -0.18,-1.41 -0.84,-2.01 -0.15,-0.12 -1.14,-0.21 -1.14,-0.33 0,-0.21 0.57,-0.24 0.63,-0.45 0.03,-0.03 0.03,-0.09 0.03,-0.12 0,-0.09 -0.12,-0.09 -0.21,-0.09 -0.42,0 -1.05,0.45 -1.38,0.69 -0.18,0.15 -0.42,0.18 -0.63,0.3 l -0.69,0.54 z m 3.33,9.21 c 0.06,0 0.06,0.09 0.06,0.12 0,0.06 0,0.09 -0.06,0.09 -0.03,0 -0.09,-0.03 -0.09,-0.09 0,-0.03 0.06,-0.12 0.09,-0.12 z m -6.12,-14.58 c 0.03,0 0.09,0.09 0.09,0.12 0,0.06 -0.06,0.09 -0.09,0.09 -0.06,0 -0.06,-0.03 -0.06,-0.09 0,-0.03 0,-0.12 0.06,-0.12 z m -0.24,2.28 c 0.06,0 0.06,0.09 0.06,0.12 0,0.06 -0.06,0.09 -0.06,0.09 -0.03,0 -0.09,-0.09 -0.09,-0.12 0,-0.06 0.06,-0.09 0.09,-0.09 z m 6.42,8.25 c 0.06,0 0.06,0.09 0.06,0.12 0,0.06 -0.06,0.09 -0.06,0.09 -0.03,0 -0.09,-0.09 -0.09,-0.12 0,-0.06 0.06,-0.09 0.09,-0.09 z m -2.55,-14.16 c 0.06,0 0.06,0.06 0.06,0.09 0,0.06 0,0.09 -0.06,0.09 -0.09,0 -0.09,-0.03 -0.09,-0.09 0,-0.03 0,-0.09 0.09,-0.09 z m -3.99,3.84 c 0.06,0 0.06,0.06 0.06,0.09 0,0.06 0,0.09 -0.06,0.09 -0.03,0 -0.09,-0.03 -0.09,-0.09 0,-0.03 0,-0.09 0.09,-0.09 z m 0.12,12.54 c 0.06,0 0.06,0.06 0.06,0.09 0,0.06 0,0.09 -0.06,0.09 -0.03,0 -0.09,-0.03 -0.09,-0.09 0,-0.03 0,-0.09 0.09,-0.09 z m 5.25,-7.83 c 0,0 0.06,0.06 0.06,0.09 0,0.06 0,0.09 -0.06,0.09 -0.03,0 -0.09,-0.03 -0.09,-0.09 0,-0.03 0,-0.09 0.09,-0.09 z m -4.86,-1.62 c 0,0 0.06,0.06 0.06,0.09 0,0.06 0,0.09 -0.06,0.09 -0.03,0 -0.09,-0.03 -0.09,-0.09 0,-0.03 0,-0.09 0.09,-0.09 z m 0.18,4.05 c 0,0 0.06,0.06 0.06,0.09 0,0.06 0,0.09 -0.06,0.09 -0.03,0 -0.09,-0.03 -0.09,-0.09 0,-0.03 0,-0.09 0.09,-0.09 z m 0.06,2.76 c 0,0 0.06,0.06 0.06,0.09 0,0.06 0,0.09 -0.06,0.09 -0.03,0 -0.09,-0.03 -0.09,-0.09 0,-0.03 0,-0.09 0.09,-0.09 z m 5.31,-1.92 c 0,0 0.06,0.06 0.06,0.09 0,0.06 0,0.09 -0.06,0.09 -0.03,0 -0.09,-0.03 -0.09,-0.09 0,-0.03 0,-0.09 0.09,-0.09 z m -5.67,-2.52 c 0,0 0.06,0.06 0.06,0.09 0,0.06 0,0.09 -0.06,0.09 -0.03,0 -0.09,-0.03 -0.09,-0.09 0,-0.03 0,-0.09 0.09,-0.09 z m 0.36,8.25 c 0,0 0.06,0.03 0.06,0.09 0,0.03 0,0.09 -0.06,0.09 -0.03,0 -0.09,-0.06 -0.09,-0.09 0,-0.06 0,-0.09 0.09,-0.09 z m -0.21,-1.71 c 0,0 0.06,0.03 0.06,0.09 0,0.03 0,0.09 -0.06,0.09 -0.03,0 -0.09,-0.06 -0.09,-0.09 0,-0.06 0,-0.09 0.09,-0.09 z m 6.45,0.48 c 0.06,0 0.06,0.06 0.06,0.09 0,0.06 0,0.09 -0.06,0.09 -0.03,0 -0.09,-0.03 -0.09,-0.09 0,-0.03 0.06,-0.09 0.09,-0.09 z m 0,0.93 c 0.06,0 0.06,0.06 0.06,0.09 0,0.06 0,0.09 -0.06,0.09 -0.03,0 -0.09,-0.03 -0.09,-0.09 0,-0.03 0.06,-0.09 0.09,-0.09 z m -6.15,-12.18 c 0.03,0 0.09,0.06 0.09,0.09 0,0.06 -0.06,0.09 -0.09,0.09 -0.06,0 -0.06,-0.03 -0.06,-0.09 0,-0.03 0,-0.09 0.06,-0.09 z m 4.32,3.84 c 0.03,0 0.09,0.06 0.09,0.09 0,0.06 -0.06,0.09 -0.09,0.09 -0.06,0 -0.06,-0.03 -0.06,-0.09 0,-0.03 0,-0.09 0.06,-0.09 z m -5.04,-0.24 c 0.06,0 0.06,0.06 0.06,0.09 0,0.06 0,0.09 -0.06,0.09 -0.03,0 -0.09,-0.09 -0.09,-0.12 l 0.09,-0.06 z m 0,-3.6 c 0.06,0 0.06,0.06 0.06,0.09 0,0.06 0,0.09 -0.06,0.09 -0.03,0 -0.09,-0.09 -0.09,-0.12 l 0.09,-0.06 z m 5.43,-2.79 c 0.06,0 0.06,0.06 0.06,0.09 0,0.06 0,0.09 -0.06,0.09 -0.03,0 -0.09,-0.09 -0.09,-0.12 l 0.09,-0.06 z m -0.39,-2.4 c 0.06,0 0.06,0.06 0.06,0.09 0,0.06 0,0.09 -0.06,0.09 -0.03,0 -0.09,-0.09 -0.09,-0.12 l 0.09,-0.06 z m 1.89,15.06 c 0.06,0 0.06,0.06 0.06,0.09 0,0.06 0,0.09 -0.06,0.09 -0.03,0 -0.09,-0.09 -0.09,-0.12 l 0.09,-0.06 z m -0.63,-5.13 c 0.06,0 0.06,0.06 0.06,0.09 0,0.06 0,0.09 -0.06,0.09 -0.03,0 -0.09,-0.09 -0.09,-0.12 l 0.09,-0.06 z m -0.21,6.18 c 0.06,0 0.06,0.06 0.06,0.09 0,0.06 0,0.09 -0.06,0.09 -0.03,0 -0.09,-0.09 -0.09,-0.12 l 0.09,-0.06 z m 0.84,0.63 c 0.06,0 0.06,0.06 0.06,0.09 0,0.06 0,0.09 -0.06,0.09 -0.03,0 -0.09,-0.09 -0.09,-0.12 l 0.09,-0.06 z m -6.66,-3.63 c 0.03,0 0.09,0.06 0.09,0.09 0,0.06 -0.06,0.09 -0.09,0.09 -0.06,0 -0.06,-0.03 -0.06,-0.09 l 0.06,-0.09 z m 0.45,-4.5 c 0.03,0 0.09,0.06 0.09,0.09 0,0.06 -0.06,0.09 -0.09,0.09 -0.06,0 -0.06,-0.03 -0.06,-0.09 l 0.06,-0.09 z m 0.36,11.7 c 0.03,0 0.09,0.06 0.09,0.09 0,0.06 -0.06,0.09 -0.09,0.09 -0.06,0 -0.06,-0.03 -0.06,-0.09 l 0.06,-0.09 z m -0.3,-7.08 c 0.03,0 0.09,0.06 0.09,0.09 0,0.06 -0.06,0.09 -0.09,0.09 -0.06,0 -0.06,-0.03 -0.06,-0.09 l 0.06,-0.09 z m -0.84,1.95 c 0.03,0 0.09,0.06 0.09,0.09 0,0.06 -0.06,0.06 -0.06,0.06 -0.03,0 -0.12,-0.06 -0.12,-0.09 l 0.09,-0.06 z m 6.12,5.04 c 0.03,0 0.09,0.06 0.09,0.09 0,0.03 -0.09,0.06 -0.09,0.06 -0.03,0 -0.06,-0.06 -0.06,-0.09 0,-0.03 0.03,-0.06 0.06,-0.06 z m -0.21,-5.43 c 0.03,0 0.06,0.06 0.06,0.09 0,0.03 -0.03,0.06 -0.06,0.06 -0.03,0 -0.06,-0.03 -0.06,-0.06 0,-0.03 0.03,-0.09 0.06,-0.09 z m -5.22,-11.55 c 0,0.06 0.06,0.09 0.06,0.09 0,0.06 -0.06,0.06 -0.06,0.06 -0.03,0 -0.09,-0.06 -0.09,-0.09 l 0.09,-0.06 z m -0.21,15.21 c 0.03,0 0.03,0.06 0.03,0.09 0,0.06 -0.03,0.09 -0.03,0.09 -0.06,0 -0.06,-0.03 -0.06,-0.09 l 0.06,-0.09 z m -0.36,-6.18 c 0.03,0 0.06,0.03 0.06,0.06 0,0.03 -0.03,0.06 -0.06,0.06 -0.03,0 -0.06,-0.03 -0.06,-0.06 0,-0.03 0.03,-0.06 0.06,-0.06 z m 5.67,0.66 c 0.03,0 0.06,0.03 0.06,0.06 0,0.03 -0.03,0.06 -0.06,0.06 -0.03,0 -0.06,-0.03 -0.06,-0.06 0,-0.03 0.03,-0.06 0.06,-0.06 z m -0.63,-12.39 c 0.03,0 0.06,0.03 0.06,0.06 0,0.03 -0.03,0.06 -0.06,0.06 -0.03,0 -0.06,-0.03 -0.06,-0.06 0,-0.03 0.03,-0.06 0.06,-0.06 z"
         style="font-style:normal;font-variant:normal;font-weight:normal;font-stretch:normal;font-size:30px;line-height:125%;font-family:'P22 Declaration';-inkscape-font-specification:'P22 Declaration, Normal';text-align:start;writing-mode:lr-tb;text-anchor:start"
         id="path3347"
         inkscape:connector-curvature="0" />
      <path
         d="m 203.34018,318.66077 0.06,0.27 c 0.06,0.42 0.18,0.93 0.24,1.41 l 0,0.39 c 0,0.06 0.06,0.24 0.06,0.3 0,0.21 -0.03,0.42 -0.03,0.63 0,0.27 0.06,0.54 0.24,0.81 l 0.18,0.24 c 0.24,0.3 0.18,0.42 0.6,0.63 0.39,0.18 0.87,0.24 1.26,0.36 0,0 0.18,0.06 0.24,0.06 0.24,0 0.54,-0.45 0.81,-0.63 0.06,0 0.18,-0.12 0.18,-0.12 l 0.18,-0.18 c 0.06,0 0.33,-0.24 0.39,-0.24 l 0.36,-0.39 0.12,-0.06 0.18,-0.24 0.39,-0.3 0.06,-0.15 0.18,-0.24 c 0,-0.06 0.24,-0.3 0.24,-0.36 0.12,-0.18 0.39,-0.27 0.57,-0.51 0.06,-0.12 0.06,-0.36 0.06,-0.42 -0.3,0 -0.81,0.54 -1.05,0.75 l -0.18,0.12 c -0.27,0.24 -0.39,0.48 -0.63,0.66 l -0.12,0.09 0,0.12 c -0.06,0.06 -0.45,0.18 -0.51,0.24 l -0.12,0.12 -1.05,0 c 0,0 -0.06,-0.06 -0.12,-0.06 -0.06,0 -0.18,-0.12 -0.18,-0.12 -0.06,-0.06 -0.33,-0.24 -0.33,-0.3 -0.06,-0.09 -0.18,-0.33 -0.18,-0.39 l 0,-0.36 c 0,-0.06 -0.06,-0.45 -0.06,-0.51 l 0,-0.27 c 0,-0.06 0,-0.12 -0.06,-0.21 l 0,-1.02 c 0.12,-0.06 0.24,-0.18 0.3,-0.18 0.27,-0.18 0.51,-0.42 0.75,-0.6 0.39,-0.27 0.75,-0.57 1.11,-0.81 0.21,-0.12 0.33,-0.12 0.45,-0.33 0.24,-0.3 0.48,-0.72 0.69,-1.05 0,-0.21 0.12,-0.33 0.12,-0.48 l 0,-0.39 0.06,-0.18 c 0.06,-0.3 0.18,-0.75 0.18,-1.11 0,-0.27 -0.06,-0.69 -0.24,-0.87 l -0.57,-0.57 c 0,0 -0.12,-0.12 -0.18,-0.12 -0.18,-0.12 -0.42,-0.12 -0.57,-0.3 -0.03,-0.06 -0.03,-0.12 -0.03,-0.21 0,-0.09 0.06,-0.21 0.06,-0.3 0,-0.06 -0.03,-0.12 -0.15,-0.12 -0.15,0 -0.33,0.24 -0.87,0.51 -0.33,0.27 -0.69,0.36 -0.93,0.6 l -0.06,0.12 -0.12,0.06 c -0.06,0.09 -0.48,0.51 -0.63,0.63 -0.18,0.18 -0.24,0.57 -0.54,0.69 -0.06,0.12 -0.45,0.63 -0.51,0.75 -0.3,0.42 -0.3,0.93 -0.3,1.47 l 0,0.57 c 0,0.06 0.06,0.24 0.06,0.3 l 0,1.08 0.06,0.24 c 0,0.06 -0.12,0.42 -0.12,0.48 z m 1.8,-2.1 0,-2.91 c 0,-0.06 0.18,-0.33 0.24,-0.45 0.06,-0.06 0.24,-0.3 0.33,-0.3 l 0.12,0 c 0.24,0 0.3,0.12 0.48,0.24 l 0.3,0.18 c 0.39,0.27 0.51,0.81 0.51,1.26 0,0.18 -0.12,0.3 -0.12,0.48 0,0.21 0.06,0.39 0.06,0.63 0,0.36 -0.12,0.87 -0.36,1.17 l -0.21,0.21 -0.06,0.18 -0.42,0.42 -0.12,0.33 c -0.12,0.12 -0.45,0.36 -0.51,0.36 l -0.12,0 c 0,0 -0.06,-0.24 -0.06,-0.3 l 0,-0.93 c 0,-0.06 -0.06,-0.51 -0.06,-0.57 z m -0.63,5.7 c -0.03,0.06 -0.09,0.12 -0.12,0.12 -0.03,0 -0.09,-0.06 -0.09,-0.06 0.03,-0.06 0.06,-0.12 0.09,-0.12 0.03,0 0.12,0.06 0.12,0.06 z m 0.15,-1.89 0.12,-0.06 0.09,0.06 -0.12,0.12 -0.09,-0.12 z m 3.57,-7.32 0.09,-0.09 0.09,0.09 -0.09,0.09 -0.09,-0.09 z m -3.33,7.02 0.09,-0.09 0.09,0.09 -0.09,0.09 -0.09,-0.09 z m 2.01,-7.26 -0.09,-0.09 0.09,-0.09 0.06,0.09 -0.06,0.09 z m 0.69,2.43 -0.09,-0.09 0.09,-0.09 0.06,0.09 -0.06,0.09 z"
         style="font-style:normal;font-variant:normal;font-weight:normal;font-stretch:normal;font-size:30px;line-height:125%;font-family:'P22 Declaration';-inkscape-font-specification:'P22 Declaration, Normal';text-align:start;writing-mode:lr-tb;text-anchor:start"
         id="path3349"
         inkscape:connector-curvature="0" />
      <path
         d="m 232.43268,314.64077 c -0.09,-0.06 -0.03,-0.15 -0.12,-0.18 -0.06,-0.06 -0.24,-0.18 -0.3,-0.21 -0.84,-0.45 -1.35,-0.6 -2.4,-0.63 0.3,-0.3 1.11,-0.81 1.35,-1.11 0.96,-1.2 1.26,-1.92 1.26,-3.39 0,-0.9 -0.54,-1.62 -1.08,-2.31 l -0.12,0.03 c -0.3,-0.33 -1.23,-1.02 -1.65,-1.05 0.27,-0.36 0.63,-0.63 0.93,-0.96 l 0,-0.39 -0.27,0.06 c -0.54,0.3 -0.9,0.78 -1.32,1.2 -0.24,0.24 -0.63,0.45 -0.93,0.63 -0.69,0.45 -1.26,0.78 -1.98,1.29 -0.75,0.36 -1.38,0.9 -2.07,1.23 l -0.12,-0.09 c -1.11,-1.77 -2.16,-2.91 -4.35,-3.63 -0.78,-0.24 -1.62,-0.48 -2.4,-0.63 l -0.27,0.09 c -0.72,-0.12 -1.47,-0.12 -2.25,-0.12 l -0.18,-0.09 c -0.33,-0.09 -0.63,-0.09 -0.96,-0.09 l -0.45,0 c -0.39,-0.03 -0.81,-0.12 -1.17,-0.21 -1.14,-0.24 -1.98,-0.66 -2.94,-1.2 0,-0.24 -0.18,-0.45 -0.24,-0.69 0,-0.24 0.03,-0.45 0.03,-0.6 0,-0.21 0.09,-0.36 0.18,-0.54 l -0.12,-0.12 -0.12,0.06 -0.12,0.24 c -0.27,0.6 -0.57,1.29 -0.57,2.01 0,0.81 0.99,2.22 1.74,2.61 0.63,0.36 0.93,0.36 1.62,0.51 0.48,0.06 0.96,0.24 1.44,0.27 0.12,0 0.21,0.03 0.33,0.03 0.15,0 0.3,0.03 0.45,0.03 1.83,0.12 3.6,0.27 5.25,0.99 1.17,0.54 1.92,1.2 2.73,1.98 l 0.12,0.12 c 0.27,0.36 0.63,0.6 0.72,1.11 l 0,0.33 c 0,0.12 0,0.24 0.03,0.33 0.09,0.42 0.6,1.89 0.87,2.19 l -0.06,0.45 c 0.12,0.24 0.21,1.89 0.21,2.22 0,1.14 -0.06,2.01 -0.36,3.12 -0.09,0.3 -1.26,2.31 -1.5,2.55 l 0.03,0.18 0.12,-0.03 c 0.66,-0.72 1.26,-1.23 1.71,-2.13 0.57,-1.14 1.14,-2.16 1.32,-3.45 l -0.09,-0.39 c 0.15,-0.24 0.24,-0.54 0.24,-0.84 0,-0.48 -0.09,-0.96 -0.12,-1.44 -0.06,-1.38 -0.03,-3.15 -0.57,-4.47 0.39,-0.42 3.33,-2.22 3.93,-2.52 0.33,0.15 0.75,0.6 1.02,0.84 l 0.12,-0.09 -0.06,0.18 0.18,0 c 0.45,0.54 1.02,1.41 1.02,2.13 0,1.32 -0.21,2.79 -1.23,3.63 l -0.48,-0.06 c -1.17,0.06 -2.37,0.9 -3.06,1.65 l 0.12,0.12 c 0.6,-0.33 1.29,-0.48 1.98,-0.48 0.87,0 1.53,0.24 2.46,0.51 0.39,0.27 0.78,0.51 1.11,0.84 l 0.24,0.42 0.3,0.12 -0.03,0.27 c 0.39,0.84 0.51,1.29 0.51,2.19 0,1.02 -0.15,1.92 -0.6,2.82 -1.08,1.32 -1.83,1.53 -3.15,1.77 -0.18,0.03 -0.69,0.12 -0.84,0.24 -0.27,-0.18 -1.65,-0.27 -2.07,-0.33 -1.83,-0.27 -2.61,-1.02 -4.59,-1.02 -2.67,0 -5.46,1.71 -6.9,3.36 l 0.03,0.24 0.24,0.03 c 1.74,-1.29 3,-1.77 5.19,-1.92 0.06,0.03 0.27,0.06 0.51,0.06 0.33,0 0.69,-0.03 0.78,-0.03 1.05,0.21 1.65,0.39 2.16,0.57 1.26,0.42 1.68,0.54 3.69,0.54 0.18,0 0.69,-0.12 0.87,-0.15 1.5,-0.36 3.18,-1.29 4.59,-2.91 1.5,-1.5 2.19,-2.82 2.19,-4.5 0,-1.11 -0.15,-1.71 -0.87,-2.61 -0.03,-0.03 -0.3,-0.42 -0.33,-0.48 -0.06,-0.03 -0.18,-0.09 -0.24,-0.12 -0.03,-0.06 -0.06,-0.12 -0.09,-0.15 l -0.18,-0.03 z m -10.53,9.12 -0.03,-0.18 0.15,0.06 0.15,-0.06 0,0.12 -0.27,0.06 z m 8.82,-13.65 0,-0.18 0.18,0 0,0.18 -0.18,0 z m -0.48,4.62 0,-0.18 0.18,0 0,0.18 -0.18,0 z m -9.78,-8.19 0,-0.18 0.18,0 0,0.18 -0.18,0 z m 9.96,8.52 0,-0.15 0.18,0 0,0.15 -0.18,0 z m -21.57,-11.52 c 0.06,0 0.06,0.06 0.06,0.09 0,0.06 0,0.09 -0.06,0.09 -0.03,0 -0.09,-0.03 -0.09,-0.09 0,-0.03 0,-0.09 0.09,-0.09 z m 10.68,20.01 0,-0.15 0.15,0 0,0.15 -0.15,0 z m 6.57,1.2 0,-0.12 0.18,0 0,0.12 -0.18,0 z m -4.77,-17.46 0,-0.18 0.12,0 0,0.18 -0.12,0 z m -9.27,-1.23 c 0,0 0.06,0.06 0.06,0.09 0,0.06 0,0.09 -0.06,0.09 -0.03,0 -0.09,-0.03 -0.09,-0.09 0,-0.03 0,-0.09 0.09,-0.09 z m 5.22,0 c 0.03,0 0.09,0.06 0.09,0.09 0,0.06 -0.06,0.09 -0.09,0.09 -0.06,0 -0.06,-0.03 -0.06,-0.09 0,-0.03 0,-0.09 0.06,-0.09 z m -7.5,-2.13 c 0.03,0 0.09,0.06 0.09,0.09 0,0.06 -0.06,0.09 -0.09,0.09 -0.06,0 -0.06,-0.03 -0.06,-0.09 l 0.06,-0.09 z m 22.71,13.5 0,-0.15 0.12,0 0,0.15 -0.12,0 z m 0.15,0.84 0.03,-0.15 0.12,-0.03 -0.03,0.15 -0.12,0.03 z m -2.01,-10.86 0.03,-0.12 0.12,0 0,0.12 -0.15,0 z m -7.5,4.62 0.03,-0.12 0.09,-0.03 0,0.18 -0.12,-0.03 z m -0.06,0.51 -0.06,-0.12 0.12,-0.06 0.03,0.09 -0.09,0.09 z m 3.27,12.51 0,-0.12 0.15,0.03 0,0.12 -0.15,-0.03 z m -11.43,-19.47 c 0.03,0 0.06,0.06 0.06,0.09 0,0.03 -0.03,0.06 -0.06,0.06 -0.03,0 -0.06,-0.03 -0.06,-0.06 0,-0.03 0.03,-0.09 0.06,-0.09 z"
         style="font-style:normal;font-variant:normal;font-weight:normal;font-stretch:normal;font-size:30px;line-height:125%;font-family:'P22 Declaration';-inkscape-font-specification:'P22 Declaration, Normal';text-align:start;writing-mode:lr-tb;text-anchor:start"
         id="path3351"
         inkscape:connector-curvature="0" />
      <path
         d="m 237.32549,324.63077 c 0,0.12 0.03,0.27 0.18,0.27 0.42,-0.33 1.2,-1.38 1.5,-1.8 0,-0.27 0.81,-0.57 0.96,-0.75 0.27,-0.18 0.42,-0.39 0.72,-0.54 0.03,-0.06 0.45,-0.27 0.51,-0.27 0.03,-0.03 0.15,-0.12 0.15,-0.12 0.51,-0.45 0.9,-0.99 1.41,-1.41 0.21,0.03 0,0.54 0.24,0.63 l 0,1.17 c -0.03,0 -0.09,0.09 -0.09,0.12 0,0.09 -0.03,0.45 -0.03,0.54 0.09,0.21 0.21,0.33 0.36,0.51 0.39,0.51 0.63,0.66 1.32,0.93 0.15,0.09 0.3,0.21 0.51,0.21 0.33,0 0.42,-0.54 0.54,-0.72 0.15,-0.21 0.42,-0.33 0.63,-0.54 0.75,-0.69 1.59,-1.38 2.01,-2.37 -0.03,-0.03 -0.09,-0.12 -0.09,-0.12 -0.15,0 -0.24,0 -0.3,0.12 -0.24,0.57 -1.32,1.86 -2.04,1.86 -0.81,0 -1.05,-1.77 -1.14,-1.8 l 0,-0.81 c 0,-0.45 0.03,-0.87 0.03,-1.35 0,-0.18 -0.03,-0.33 -0.03,-0.45 0,-0.54 0.12,-1.02 0.12,-1.5 0,-0.3 -0.09,-0.57 -0.09,-0.84 l 0,-0.3 c 0.06,-0.09 0.69,-0.12 0.78,-0.18 0.33,-0.12 1.68,-1.05 1.68,-1.47 0,-0.09 -0.09,-0.09 -0.15,-0.09 -0.36,0 -0.66,0.39 -1.08,0.39 -0.84,0 -0.6,-0.51 -1.08,-0.63 -0.06,-0.12 -0.42,-0.6 -0.51,-0.72 -0.06,-0.03 -0.54,-0.75 -0.54,-0.93 0,-0.42 0.69,-0.54 0.69,-0.96 0,-0.03 -0.03,-0.15 -0.12,-0.15 -0.45,0 -1.71,1.38 -2.01,1.62 l -0.66,0.42 c -0.36,0.21 -1.14,0.93 -1.14,1.32 0,0.06 0,0.15 0.12,0.15 0.24,0 0.84,-0.84 1.14,-0.99 0.03,0 1.2,1.32 1.29,1.53 l 0,0.42 c 0,0.51 -0.12,0.93 -0.12,1.41 0,0.03 0.03,0.15 0.03,0.15 0,0.33 -0.15,0.72 -0.15,1.02 0,0.12 0.03,0.21 0.03,0.3 0,0.84 -0.96,1.68 -1.41,2.34 0,0 -0.06,0.09 -0.06,0.12 -0.42,0.51 -1.2,0.81 -1.77,1.11 -0.21,0.12 -0.48,0.36 -0.75,0.36 -0.09,0 -0.42,-0.09 -0.51,-0.15 l 0,-0.21 c 0,-0.39 0.27,-0.57 0.27,-1.02 l 0,-1.29 c 0.03,0 0.09,-0.09 0.09,-0.15 0.03,-0.54 0.03,-1.11 0.12,-1.71 0,-0.09 0.12,-0.63 0.12,-0.72 0,-0.12 -0.03,-0.24 -0.03,-0.33 0,-0.06 0,-0.12 0.06,-0.21 l 0,-2.61 c 0,-0.03 -0.15,-0.42 -0.24,-0.51 -0.18,-0.24 -1.17,-0.75 -1.17,-0.9 0,-0.51 0.87,-0.9 0.87,-1.47 -0.66,0 -1.08,0.75 -1.5,1.11 0,0.06 -0.09,0.09 -0.12,0.09 l -1.05,1.05 c -0.21,0.12 -1.14,0.69 -1.14,0.93 0,0.12 0.15,0.24 0.33,0.24 0.42,0 0.81,-0.54 1.35,-0.54 0.33,0 0.54,0.42 0.69,0.72 0.03,0.03 0.03,0.06 0.03,0.09 0.03,0.21 0.15,0.72 0.15,0.75 l 0,2.61 c -0.12,0.42 -0.03,0.54 -0.12,1.08 0,0.12 -0.3,0.72 -0.3,0.84 0,0.54 0.18,1.23 0.18,1.8 0,0.06 -0.03,0.12 -0.06,0.15 -0.24,0.15 -0.33,0.42 -0.45,0.48 -0.18,0.15 -0.66,0 -0.66,0.39 l 0.15,0 -0.03,0.21 -0.27,-0.12 c 0,0.21 -0.18,0.18 -0.27,0.24 -0.48,0.36 -0.69,0.69 -0.69,0.84 0,0.09 0,0.18 0.12,0.18 0.72,-0.42 0.96,-0.69 1.65,-0.69 0.33,0.09 1.05,0.63 1.14,0.6 0.09,0.12 0.12,0.18 0.12,0.3 0,0.21 -0.42,0.63 -0.42,0.72 z m -0.45,-2.7 0.12,0 -0.15,0.21 -0.21,0.06 -0.03,-0.15 0.18,-0.21 0.09,0.09 z m 0.9,-0.51 -0.06,0.09 -0.12,-0.12 0.12,-0.09 0.06,0.12 z m -0.27,-2.31 -0.06,0.09 -0.12,-0.12 0.12,-0.09 0.06,0.12 z m 5.7,-0.75 -0.06,0.09 -0.12,-0.12 0.12,-0.09 0.06,0.12 z m -1.68,2.25 -0.18,0.12 0.03,-0.21 0.15,0.09 z m -3.39,-1.02 -0.09,0.09 -0.09,-0.09 0.09,-0.09 0.09,0.09 z m -1.68,-7.08 -0.09,0.09 -0.09,-0.09 0.09,-0.09 0.09,0.09 z m 0.66,10.26 0.12,0.06 -0.09,0.09 -0.12,-0.09 0.09,-0.06 z m 6.18,-5.97 -0.06,0.09 -0.09,-0.12 0.09,-0.09 0.06,0.12 z m -1.95,4.38 -0.15,0.09 0.03,-0.21 0.12,0.12 z m -5.4,1.56 -0.09,0.03 -0.15,-0.09 0.15,-0.03 0.09,0.09 z m 0.45,-0.54 -0.06,0.09 -0.09,-0.12 0.09,-0.06 0.06,0.09 z m 6.03,-9.15 -0.06,0.09 -0.09,-0.09 0.09,-0.09 0.06,0.09 z m -7.53,10.23 0.09,0.09 -0.09,0.09 -0.06,-0.09 0.06,-0.09 z m 2.7,-3.6 0.09,0.09 -0.09,0.09 -0.06,-0.09 0.06,-0.09 z m -1.08,3.06 -0.06,0.09 -0.09,-0.09 0.09,-0.09 0.06,0.09 z m 2.43,-9.18 -0.06,0.09 -0.09,-0.09 0.09,-0.09 0.06,0.09 z m -0.6,6.12 -0.09,0.09 -0.09,-0.06 0.09,-0.09 0.09,0.06 z m -1.08,0.51 -0.06,0.09 -0.09,-0.09 0.09,-0.09 0.06,0.09 z m 7.2,-3.54 0.09,0.09 -0.09,0.09 -0.06,-0.09 0.06,-0.09 z m 0.6,7.08 -0.06,0.09 -0.09,-0.09 0.06,-0.09 0.09,0.09 z m -2.94,-11.16 -0.06,0.09 -0.09,-0.09 0.09,-0.09 0.06,0.09 z m -3.72,7.44 -0.06,0.09 -0.09,-0.09 0.09,-0.09 0.06,0.09 z m 0.15,-4.83 -0.06,0.09 -0.09,-0.09 0.09,-0.09 0.06,0.09 z m -3.24,7.68 0.12,-0.09 0.09,0.03 -0.12,0.09 -0.09,-0.03 z m 0.72,0 -0.09,0.09 -0.03,-0.09 0.03,-0.09 0.09,0.09 z m 2.07,-6.6 -0.03,0.09 -0.09,-0.12 0.09,-0.06 0.03,0.09 z m -0.57,-0.27 0.03,0.09 -0.03,0.09 -0.06,-0.09 0.06,-0.09 z"
         style="font-style:normal;font-variant:normal;font-weight:normal;font-stretch:normal;font-size:30px;line-height:125%;font-family:'P22 Declaration';-inkscape-font-specification:'P22 Declaration, Normal';text-align:start;writing-mode:lr-tb;text-anchor:start"
         id="path3353"
         inkscape:connector-curvature="0" />
      <path
         d="m 250.05908,321.06077 0,1.77 c 0,0.33 1.47,1.29 1.8,1.29 0.36,0 2.25,-2.04 2.58,-2.46 0.24,-0.33 0.45,-0.9 0.45,-1.26 -0.09,0 -0.15,0 -0.15,0.06 -0.42,0.69 -0.66,1.47 -1.5,1.83 l -0.39,0 c -1.05,0 -0.9,-0.39 -1.05,-1.26 -0.03,-0.18 -0.12,-0.36 -0.12,-0.51 0,-0.21 0.18,-0.42 0.18,-0.69 0,-0.36 -0.12,-0.84 -0.12,-1.26 0,-1.08 0.12,-2.16 0.24,-3.21 l 0,-0.27 c 0,-0.12 0,-0.18 0.09,-0.36 0.33,-0.06 0.51,-0.18 0.78,-0.3 0.15,-0.09 1.05,-1.11 1.05,-1.23 0,-0.12 -0.06,-0.24 -0.21,-0.24 -0.39,0 -0.72,0.45 -1.14,0.45 -0.66,0 -1.59,-0.66 -1.59,-1.29 0,-0.39 0.6,-0.51 0.6,-0.9 0,-0.06 0,-0.12 -0.09,-0.24 l -0.12,0 c -0.36,0.06 -0.69,0.36 -1.02,0.54 l -0.99,0.96 c -0.15,0.12 -0.39,0.3 -0.54,0.42 -0.24,0.15 -1.23,0.9 -1.23,1.14 0,0.12 0.12,0.18 0.24,0.18 0.48,0 0.75,-0.63 1.26,-0.63 0.3,0.48 0.69,0.72 1.11,0.87 0,0.75 -0.12,1.41 -0.12,2.07 l 0,0.12 c 0,0.09 0.06,0.66 0.06,0.75 -0.03,0.63 -0.21,1.65 -0.21,2.37 0,0.12 0.06,0.75 0.09,0.9 0,0.06 0.06,0.18 0.06,0.21 0.06,0.06 0.06,0.09 0.06,0.09 -0.03,0.06 -0.03,0.09 -0.06,0.09 z m -1.26,-11.55 c 0,0.09 0.03,0.21 0.15,0.21 0.93,0 1.77,-0.75 2.22,-1.47 0.18,-0.24 0.06,-0.24 0.3,-0.45 0,-0.06 0.06,-0.27 0.06,-0.3 0,-0.63 -0.36,-0.6 -0.72,-1.05 l 0,-0.21 c 0,-0.39 0.12,-0.69 0.12,-1.05 l -0.18,0 -0.69,0.66 c -0.6,0.3 -1.23,0.75 -1.23,1.47 0,0.48 0.51,1.17 0.96,1.17 0.03,0 0.09,0 0.12,-0.03 -0.03,0.69 -1.05,0.69 -1.11,1.05 z m 2.64,12.39 c 0.06,0 0.06,0.09 0.06,0.12 0,0.06 0,0.09 -0.06,0.09 -0.03,0 -0.09,-0.03 -0.09,-0.09 0,-0.03 0.06,-0.12 0.09,-0.12 z m 0.06,-4.05 c 0.06,0 0.06,0.09 0.06,0.12 0,0.06 -0.06,0.09 -0.06,0.09 -0.03,0 -0.09,-0.09 -0.09,-0.12 0,-0.06 0.06,-0.09 0.09,-0.09 z m 1.38,4.71 c 0.06,0 0.06,0.03 0.06,0.09 0,0.03 0,0.09 -0.06,0.09 -0.03,0 -0.09,-0.06 -0.09,-0.09 0,-0.06 0.06,-0.09 0.09,-0.09 z m -2.13,-1.95 c 0.06,0 0.06,0.06 0.06,0.09 0,0.06 0,0.09 -0.06,0.09 -0.03,0 -0.09,-0.03 -0.09,-0.09 0,-0.03 0.06,-0.09 0.09,-0.09 z m -0.21,-9.06 c 0.06,0 0.06,0.06 0.06,0.09 0,0.06 0,0.09 -0.06,0.09 -0.03,0 -0.09,-0.03 -0.09,-0.09 0,-0.03 0.06,-0.09 0.09,-0.09 z m 0.03,-4.95 c 0.06,0 0.06,0.06 0.06,0.09 0,0.06 0,0.09 -0.06,0.09 -0.03,0 -0.09,-0.03 -0.09,-0.09 0,-0.03 0.06,-0.09 0.09,-0.09 z m 0.18,14.94 c 0.06,0 0.06,0.06 0.06,0.09 0,0.06 0,0.09 -0.06,0.09 -0.03,0 -0.09,-0.03 -0.09,-0.09 0,-0.03 0.06,-0.09 0.09,-0.09 z m -0.24,-6.03 c 0.06,0 0.06,0.06 0.06,0.09 0,0.06 0,0.09 -0.06,0.09 -0.03,0 -0.09,-0.03 -0.09,-0.09 0,-0.03 0.06,-0.09 0.09,-0.09 z m 2.73,6.96 c 0.06,0 0.06,0.03 0.06,0.09 0,0.03 0,0.09 -0.06,0.09 -0.03,0 -0.09,-0.09 -0.09,-0.15 l 0.09,-0.03 z m 0.78,-0.63 c 0.06,0 0.06,0.06 0.06,0.09 0,0.06 0,0.09 -0.06,0.09 -0.03,0 -0.09,-0.09 -0.09,-0.12 l 0.09,-0.06 z m -3.15,-2.16 c 0.06,0 0.06,0.06 0.06,0.09 0,0.06 0,0.09 -0.06,0.09 -0.03,0 -0.09,-0.09 -0.09,-0.12 l 0.09,-0.06 z m -0.36,-11.91 c 0.06,0 0.06,0.06 0.06,0.09 0,0.06 0,0.09 -0.06,0.09 -0.03,0 -0.09,-0.09 -0.09,-0.12 l 0.09,-0.06 z m -2.13,5.73 c 0.06,0 0.06,0.06 0.06,0.09 0,0.06 0,0.09 -0.06,0.09 -0.03,0 -0.09,-0.09 -0.09,-0.12 l 0.09,-0.06 z m 2.13,9.21 c 0.06,0 0.06,0.06 0.06,0.09 0,0.06 0,0.09 -0.06,0.09 -0.03,0 -0.09,-0.09 -0.09,-0.12 l 0.09,-0.06 z m 0.3,-1.8 c 0.06,0 0.06,0.06 0.06,0.09 0,0.06 0,0.09 -0.06,0.09 -0.03,0 -0.09,-0.09 -0.09,-0.12 l 0.09,-0.06 z m -0.3,-5.1 c 0.06,0 0.06,0.06 0.06,0.09 0,0.06 0,0.09 -0.06,0.09 -0.03,0 -0.09,-0.09 -0.09,-0.12 l 0.09,-0.06 z m -0.27,6.99 c 0.03,0 0.09,0.06 0.09,0.09 0,0.03 -0.09,0.06 -0.09,0.06 -0.03,0 -0.06,-0.06 -0.06,-0.09 0,-0.03 0.03,-0.06 0.06,-0.06 z m 0.39,-4.44 c 0.03,0 0.06,0.06 0.06,0.09 0,0.03 -0.03,0.06 -0.06,0.06 -0.03,0 -0.06,-0.03 -0.06,-0.06 0,-0.03 0.03,-0.09 0.06,-0.09 z m 2.97,-5.31 c 0.03,0 0.06,0.03 0.06,0.06 0,0.03 -0.03,0.06 -0.06,0.06 -0.03,0 -0.06,-0.03 -0.06,-0.06 0,-0.03 0.03,-0.06 0.06,-0.06 z"
         style="font-style:normal;font-variant:normal;font-weight:normal;font-stretch:normal;font-size:30px;line-height:125%;font-family:'P22 Declaration';-inkscape-font-specification:'P22 Declaration, Normal';text-align:start;writing-mode:lr-tb;text-anchor:start"
         id="path3355"
         inkscape:connector-curvature="0" />
      <path
         d="m 258.59033,324.24077 c 0,0.21 -0.3,0.33 -0.3,0.54 0.42,0 2.88,-3.33 2.88,-3.96 0,0 -0.03,-0.09 -0.18,-0.09 -0.06,0.15 -0.18,0.42 -0.24,0.51 -0.21,0.36 -0.72,1.41 -1.02,1.41 -0.3,0 -0.51,-0.63 -0.93,-0.63 -0.03,0 -0.03,-0.39 -0.03,-0.57 0,-0.96 0.09,-1.8 0.09,-2.67 l 0,-1.47 c -0.09,-0.15 -0.09,-0.24 -0.09,-0.36 0,-0.15 0.09,-0.21 0.09,-0.3 0,0 -0.06,-0.12 -0.09,-0.12 l 0,-3.39 c -0.06,-0.21 -0.06,-0.39 -0.06,-0.63 0,-0.33 0.09,-0.72 0.09,-1.11 0,-0.39 -0.12,-0.75 -0.12,-1.14 -0.09,-0.9 -0.18,-1.83 -0.18,-2.67 0,-0.39 0.78,-2.16 0.99,-2.34 0.03,0 0.18,-0.06 0.24,-0.12 0.15,-0.15 0.12,-0.36 0.39,-0.57 0.12,-0.06 0.45,-0.12 0.63,-0.12 0.36,0 0.57,0 0.57,0.36 0,0.3 -0.54,0.6 -0.69,0.81 l 0,0.33 c 0,0.06 -0.03,0.15 -0.03,0.24 0,0.09 0.03,0.18 0.09,0.21 l 0.27,0 c 0.81,0 1.08,-0.24 1.5,-0.78 0.36,-0.51 0.87,-0.69 0.87,-1.5 -0.45,-0.48 -0.81,-0.87 -1.5,-0.87 -0.51,0 -1.41,0.3 -1.86,0.63 -0.69,0.57 -1.29,1.38 -1.98,2.04 l -0.99,1.56 c -0.21,0.3 -0.24,1.23 -0.24,1.59 0,1.05 0.15,2.07 0.15,3.12 0,0.27 -0.03,0.54 -0.03,0.81 0,0.57 0.15,1.11 0.15,1.68 l 0,1.56 c 0,0.09 0.18,0.93 0.18,1.02 0,0.15 -0.06,0.27 -0.06,0.36 -0.06,0.12 -0.06,0.75 -0.06,0.93 0,0.69 0.06,1.44 0.15,2.16 0.03,0.09 0.09,0.48 0.09,0.54 0,0.18 -0.06,0.78 -0.09,0.93 -0.15,0.24 -0.42,0.33 -0.6,0.48 -0.33,0.3 -0.96,1.29 -0.96,1.65 0,0.03 0,0.12 0.03,0.12 0.48,0 0.75,-0.96 1.44,-0.96 l 0.12,0 c 0.27,0 1.32,0.45 1.32,0.78 z m -0.39,-12.78 -0.24,0.09 -0.09,-0.24 0.33,0.15 z m -0.45,-0.96 -0.06,0.15 -0.12,-0.15 0.12,-0.15 0.06,0.15 z m -0.66,-2.43 -0.06,0.18 -0.09,-0.12 0.06,-0.18 0.09,0.12 z m 1.92,14.73 -0.09,0.06 -0.15,-0.15 0.09,-0.06 0.15,0.15 z m -0.9,-12.42 -0.09,0.12 -0.09,-0.12 0.06,-0.12 0.12,0.12 z m -0.06,2.64 -0.06,0.12 -0.09,-0.12 0.09,-0.12 0.06,0.12 z m 4.11,-7.98 -0.12,0.06 -0.06,-0.09 0.09,-0.09 0.09,0.12 z m -4.86,7.74 -0.09,0.06 -0.09,-0.09 0.09,-0.09 0.09,0.12 z m 0.9,0.69 0.09,0.09 -0.09,0.09 -0.09,-0.09 0.09,-0.09 z m 2.28,-9.18 -0.06,0.12 -0.12,-0.06 0.06,-0.09 0.12,0.03 z m 0.21,-0.18 -0.06,0.09 -0.09,-0.03 0.06,-0.15 0.09,0.09 z m -4.56,19.53 -0.06,0.09 -0.12,-0.03 0.09,-0.12 0.09,0.06 z m 1.11,-15.63 0.06,0.12 -0.09,0.06 -0.06,-0.09 0.09,-0.09 z m 1.95,-2.85 -0.09,0.12 -0.03,-0.15 0.09,-0.06 0.03,0.09 z m -0.72,10.14 -0.06,0.09 -0.09,-0.12 0.09,-0.06 0.06,0.09 z m -0.9,7.59 -0.09,0.06 -0.09,-0.09 0.09,-0.06 0.09,0.09 z m -0.15,-7.83 -0.09,0.09 -0.06,-0.09 0.06,-0.09 0.09,0.09 z m 0.54,7.14 -0.09,0.06 -0.09,-0.09 0.09,-0.06 0.09,0.09 z m 0.09,-5.01 0.12,0.12 -0.15,0.06 0.03,-0.18 z m 0.66,0.99 -0.12,0.06 0.03,-0.18 0.09,0.12 z m 1.29,-13.98 -0.03,0.09 -0.06,-0.09 0.06,-0.09 0.03,0.09 z"
         style="font-style:normal;font-variant:normal;font-weight:normal;font-stretch:normal;font-size:30px;line-height:125%;font-family:'P22 Declaration';-inkscape-font-specification:'P22 Declaration, Normal';text-align:start;writing-mode:lr-tb;text-anchor:start"
         id="path3357"
         inkscape:connector-curvature="0" />
      <path
         d="m 265.90283,323.73077 c -0.21,0.45 -0.63,0.51 -0.69,0.93 l 0.06,0.15 c 0.15,0 0.39,-0.09 0.51,-0.18 0.45,-0.6 0.93,-0.87 1.38,-1.35 0.6,-0.63 1.17,-1.02 1.71,-1.65 l 0.39,-0.42 c 1.77,-1.92 2.1,-2.73 2.43,-4.14 0,-0.03 0.03,-0.06 0.03,-0.09 0.09,-0.39 0.09,-0.99 0.09,-1.38 0,-0.69 -0.3,-1.68 -0.75,-2.28 -0.24,-0.45 -0.81,-0.6 -1.14,-1.14 -0.27,-0.27 -0.57,-0.48 -0.87,-0.72 -0.27,-0.21 -0.63,-0.42 -0.9,-0.54 -0.42,-0.24 -0.72,-0.63 -1.11,-0.87 0,0 -0.03,-0.03 -0.06,-0.03 l -0.09,-0.06 c -0.54,-0.39 -1.59,-1.44 -1.83,-2.19 -0.18,-0.54 -0.18,-0.75 -0.3,-1.32 0.06,-0.99 0.57,-1.47 1.11,-2.1 0.27,-0.27 1.5,-0.6 1.83,-0.63 l 0.12,-0.24 -0.12,-0.06 c -2.1,0.24 -4.65,2.01 -4.65,4.26 l 0,0.33 c 0,1.17 0.72,1.86 1.11,2.49 0.15,0.24 0.75,0.81 0.9,0.93 0.42,0.36 0.81,0.57 1.29,0.9 -0.66,0.36 -1.2,0.99 -1.74,1.65 -0.45,0.81 -0.51,1.05 -0.93,1.89 l -0.18,0.9 c -0.36,0.48 -0.57,1.98 -0.57,2.76 l 0,0.24 c 0.03,0.3 0.21,0.78 0.27,1.08 0.24,0.99 1.08,1.77 1.89,2.28 0.24,0.15 0.54,0.45 0.81,0.6 z m -1.05,-8.07 c 0.21,-0.99 0.54,-1.8 1.32,-2.55 l 0.57,-0.18 c 1.83,0.03 3.39,2.46 3.39,4.17 0,0.81 -0.03,1.38 -0.24,1.95 -0.09,0.21 -0.12,0.45 -0.21,0.63 -0.24,0.48 -0.6,0.9 -0.93,1.29 0,0.21 -0.87,1.05 -1.08,1.2 -0.42,-0.06 -1.41,-0.27 -1.74,-0.6 -0.87,-0.96 -1.08,-2.46 -1.08,-3.69 l 0,-2.22 z m 2.85,-3.6 0,0.39 -0.33,0 0.33,-0.39 z m -3.81,5.73 c -0.09,0.09 -0.15,0.15 -0.18,0.15 -0.03,0 -0.06,-0.06 -0.06,-0.15 0,-0.03 0.06,-0.03 0.12,-0.03 0.06,0 0.12,0 0.12,0.03 z m 2.28,-6.24 c 0.06,0 0.12,0.06 0.12,0.12 0,0.03 -0.06,0.09 -0.12,0.09 0,0 -0.03,-0.06 -0.03,-0.09 0,-0.06 0.03,-0.12 0.03,-0.12 z m -2.46,8.37 c 0.06,0 0.12,0.06 0.12,0.12 0,0.03 -0.06,0.09 -0.12,0.09 0,0 -0.03,-0.06 -0.03,-0.09 0,-0.06 0.03,-0.12 0.03,-0.12 z m 1.14,-5.76 c 0.06,0 0.12,0.06 0.12,0.09 0,0.06 -0.06,0.09 -0.12,0.09 0,0 -0.03,-0.03 -0.03,-0.09 0,-0.03 0.03,-0.09 0.03,-0.09 z m 1.17,9 c 0.03,0 0.06,0 0.06,0.06 0,0.03 -0.03,0.09 -0.06,0.09 -0.06,0 -0.09,-0.03 -0.09,-0.06 0,-0.06 0.03,-0.09 0.09,-0.09 z m -2.01,-15.99 c 0.06,0 0.09,0.03 0.09,0.06 0,0.06 -0.03,0.09 -0.09,0.09 -0.03,0 -0.06,-0.03 -0.06,-0.09 0,-0.03 0.03,-0.06 0.06,-0.06 z m 0.51,3.15 c 0.03,0 0.06,0.03 0.06,0.06 0,0.06 -0.03,0.09 -0.06,0.09 -0.06,0 -0.09,-0.03 -0.09,-0.09 0,-0.03 0.03,-0.06 0.09,-0.06 z m -0.87,8.07 c 0.03,0 0.06,0.03 0.06,0.06 0,0.06 -0.03,0.09 -0.06,0.09 -0.06,0 -0.09,-0.03 -0.09,-0.09 0,-0.03 0.03,-0.06 0.09,-0.06 z m 0.96,3.78 c 0.03,0 0.06,0.03 0.06,0.06 0,0.06 0,0.09 -0.03,0.09 -0.06,0 -0.09,-0.03 -0.09,-0.09 0,-0.03 0,-0.06 0.06,-0.06 z m 0.03,-12.6 c 0.06,0 0.06,0.03 0.06,0.06 0,0.03 0,0.06 -0.06,0.06 -0.03,0 -0.06,-0.03 -0.06,-0.06 0,-0.03 0.03,-0.06 0.06,-0.06 z"
         style="font-style:normal;font-variant:normal;font-weight:normal;font-stretch:normal;font-size:30px;line-height:125%;font-family:'P22 Declaration';-inkscape-font-specification:'P22 Declaration, Normal';text-align:start;writing-mode:lr-tb;text-anchor:start"
         id="path3359"
         inkscape:connector-curvature="0" />
      <path
         d="m 273.59408,318.66077 0.06,0.27 c 0.06,0.42 0.18,0.93 0.24,1.41 l 0,0.39 c 0,0.06 0.06,0.24 0.06,0.3 0,0.21 -0.03,0.42 -0.03,0.63 0,0.27 0.06,0.54 0.24,0.81 l 0.18,0.24 c 0.24,0.3 0.18,0.42 0.6,0.63 0.39,0.18 0.87,0.24 1.26,0.36 0,0 0.18,0.06 0.24,0.06 0.24,0 0.54,-0.45 0.81,-0.63 0.06,0 0.18,-0.12 0.18,-0.12 l 0.18,-0.18 c 0.06,0 0.33,-0.24 0.39,-0.24 l 0.36,-0.39 0.12,-0.06 0.18,-0.24 0.39,-0.3 0.06,-0.15 0.18,-0.24 c 0,-0.06 0.24,-0.3 0.24,-0.36 0.12,-0.18 0.39,-0.27 0.57,-0.51 0.06,-0.12 0.06,-0.36 0.06,-0.42 -0.3,0 -0.81,0.54 -1.05,0.75 l -0.18,0.12 c -0.27,0.24 -0.39,0.48 -0.63,0.66 l -0.12,0.09 0,0.12 c -0.06,0.06 -0.45,0.18 -0.51,0.24 l -0.12,0.12 -1.05,0 c 0,0 -0.06,-0.06 -0.12,-0.06 -0.06,0 -0.18,-0.12 -0.18,-0.12 -0.06,-0.06 -0.33,-0.24 -0.33,-0.3 -0.06,-0.09 -0.18,-0.33 -0.18,-0.39 l 0,-0.36 c 0,-0.06 -0.06,-0.45 -0.06,-0.51 l 0,-0.27 c 0,-0.06 0,-0.12 -0.06,-0.21 l 0,-1.02 c 0.12,-0.06 0.24,-0.18 0.3,-0.18 0.27,-0.18 0.51,-0.42 0.75,-0.6 0.39,-0.27 0.75,-0.57 1.11,-0.81 0.21,-0.12 0.33,-0.12 0.45,-0.33 0.24,-0.3 0.48,-0.72 0.69,-1.05 0,-0.21 0.12,-0.33 0.12,-0.48 l 0,-0.39 0.06,-0.18 c 0.06,-0.3 0.18,-0.75 0.18,-1.11 0,-0.27 -0.06,-0.69 -0.24,-0.87 l -0.57,-0.57 c 0,0 -0.12,-0.12 -0.18,-0.12 -0.18,-0.12 -0.42,-0.12 -0.57,-0.3 -0.03,-0.06 -0.03,-0.12 -0.03,-0.21 0,-0.09 0.06,-0.21 0.06,-0.3 0,-0.06 -0.03,-0.12 -0.15,-0.12 -0.15,0 -0.33,0.24 -0.87,0.51 -0.33,0.27 -0.69,0.36 -0.93,0.6 l -0.06,0.12 -0.12,0.06 c -0.06,0.09 -0.48,0.51 -0.63,0.63 -0.18,0.18 -0.24,0.57 -0.54,0.69 -0.06,0.12 -0.45,0.63 -0.51,0.75 -0.3,0.42 -0.3,0.93 -0.3,1.47 l 0,0.57 c 0,0.06 0.06,0.24 0.06,0.3 l 0,1.08 0.06,0.24 c 0,0.06 -0.12,0.42 -0.12,0.48 z m 1.8,-2.1 0,-2.91 c 0,-0.06 0.18,-0.33 0.24,-0.45 0.06,-0.06 0.24,-0.3 0.33,-0.3 l 0.12,0 c 0.24,0 0.3,0.12 0.48,0.24 l 0.3,0.18 c 0.39,0.27 0.51,0.81 0.51,1.26 0,0.18 -0.12,0.3 -0.12,0.48 0,0.21 0.06,0.39 0.06,0.63 0,0.36 -0.12,0.87 -0.36,1.17 l -0.21,0.21 -0.06,0.18 -0.42,0.42 -0.12,0.33 c -0.12,0.12 -0.45,0.36 -0.51,0.36 l -0.12,0 c 0,0 -0.06,-0.24 -0.06,-0.3 l 0,-0.93 c 0,-0.06 -0.06,-0.51 -0.06,-0.57 z m -0.63,5.7 c -0.03,0.06 -0.09,0.12 -0.12,0.12 -0.03,0 -0.09,-0.06 -0.09,-0.06 0.03,-0.06 0.06,-0.12 0.09,-0.12 0.03,0 0.12,0.06 0.12,0.06 z m 0.15,-1.89 0.12,-0.06 0.09,0.06 -0.12,0.12 -0.09,-0.12 z m 3.57,-7.32 0.09,-0.09 0.09,0.09 -0.09,0.09 -0.09,-0.09 z m -3.33,7.02 0.09,-0.09 0.09,0.09 -0.09,0.09 -0.09,-0.09 z m 2.01,-7.26 -0.09,-0.09 0.09,-0.09 0.06,0.09 -0.06,0.09 z m 0.69,2.43 -0.09,-0.09 0.09,-0.09 0.06,0.09 -0.06,0.09 z"
         style="font-style:normal;font-variant:normal;font-weight:normal;font-stretch:normal;font-size:30px;line-height:125%;font-family:'P22 Declaration';-inkscape-font-specification:'P22 Declaration, Normal';text-align:start;writing-mode:lr-tb;text-anchor:start"
         id="path3361"
         inkscape:connector-curvature="0" />
      <path
         d="m 283.27002,323.58077 c 0,0.84 -0.33,1.5 -0.63,2.31 0.72,-0.03 1.08,-1.92 1.53,-2.43 l 0.18,-0.24 c 0.6,-0.72 1.14,-1.38 1.53,-2.25 0,-0.18 -0.03,-0.21 -0.12,-0.21 -0.27,0 -0.51,1.08 -0.93,1.26 -0.09,-0.03 -0.54,-0.24 -0.63,-0.33 0,0 -0.03,-0.06 -0.03,-1.32 l -0.09,-0.12 0,-0.42 c 0,-1.08 0.09,-2.1 0.09,-3.18 0.09,-0.09 0.12,-0.21 0.12,-0.36 l 0,-0.48 c 0,-0.24 0.24,-0.48 0.24,-0.69 0,-0.21 0.3,-0.54 0.39,-0.63 0.12,-0.21 0.3,-0.63 0.57,-0.63 0.06,0 0.51,0.57 0.72,0.63 l 0.51,0 c 0.81,0 1.62,-0.33 2.13,-1.02 0.06,-0.03 0.48,-0.48 0.51,-0.51 0.18,-0.27 0.42,-0.24 0.42,-0.6 -0.87,0 -1.08,0.63 -1.62,0.66 -0.51,0 -1.11,-0.3 -1.11,-0.81 0,-0.06 0,-0.12 0.03,-0.21 0.09,-0.06 0.42,-0.54 0.51,-0.63 l 0,-0.12 c 0,-0.18 -0.06,-0.18 -0.24,-0.18 -0.18,0 -0.12,0.03 -0.33,0.21 -0.9,0.63 -0.96,0.84 -1.53,1.68 -0.06,0.12 -0.54,0.78 -0.66,0.9 -0.27,0.24 -0.33,0.45 -0.51,0.57 -0.09,-0.06 -0.15,-0.18 -0.15,-0.3 0,-0.06 0.03,-0.18 0.03,-0.21 l 0,-0.12 c 0,-0.15 -0.18,-1.14 -0.24,-1.2 -0.21,-0.27 -1.05,-0.66 -1.05,-0.9 0,-0.3 0.45,-0.39 0.45,-0.69 l -0.09,-0.09 -0.42,0 c -0.03,0 -0.33,0.36 -0.45,0.48 -0.42,0.45 -0.93,0.66 -1.35,1.17 -0.3,0.3 -0.3,0.51 -0.63,0.84 0.12,0.03 0.24,0.03 0.36,0.03 0.33,0 0.63,-0.06 0.93,-0.06 0.48,0 0.57,0.33 0.66,0.69 0,0.09 0.03,0.15 0.03,0.18 0.12,0.42 0.51,0.18 0.51,0.42 -0.03,0 -0.18,-0.09 -0.27,-0.09 -0.03,0 -0.15,0 -0.15,0.09 0.03,0.42 0.03,0.6 0.03,0.96 0,0.3 -0.03,0.54 -0.03,0.84 l 0,0.3 c 0,0.12 0.12,0.96 0.12,1.08 l 0,2.37 c 0,0.03 0.03,0.42 0.03,0.51 0,0.03 -0.03,0.75 -0.03,1.11 l -0.21,0 -0.6,0.69 c -0.12,0.42 -0.36,0.78 -0.51,1.2 0.48,-0.12 0.81,-0.78 1.35,-0.78 0.3,0 0.63,0.33 0.63,0.63 z m 5.28,-10.44 c 0,0 0.06,0.06 0.06,0.09 0,0.06 0,0.09 -0.06,0.09 -0.03,0 -0.09,-0.03 -0.09,-0.09 0,-0.03 0,-0.09 0.09,-0.09 z m -1.62,-0.84 c 0,0 0.06,0.06 0.06,0.09 0,0.06 0,0.09 -0.06,0.09 -0.03,0 -0.09,-0.03 -0.09,-0.09 0,-0.03 0,-0.09 0.09,-0.09 z m -3.36,11.67 c 0.03,0 0.09,0.06 0.09,0.09 0,0.06 -0.06,0.09 -0.09,0.09 -0.06,0 -0.06,-0.03 -0.06,-0.09 l 0.06,-0.09 z m 0,-4.92 c 0.03,0 0.03,0.06 0.03,0.09 0,0.06 0,0.09 -0.03,0.09 -0.06,0 -0.09,-0.03 -0.09,-0.09 0,-0.03 0,-0.09 0.09,-0.09 z m -0.45,0.06 c 0,-0.06 0.03,-0.09 0.06,-0.09 0.03,0 0.06,0.03 0.06,0.09 0,0.06 -0.03,0.09 -0.06,0.09 -0.03,0 -0.06,-0.03 -0.06,-0.09 z"
         style="font-style:normal;font-variant:normal;font-weight:normal;font-stretch:normal;font-size:30px;line-height:125%;font-family:'P22 Declaration';-inkscape-font-specification:'P22 Declaration, Normal';text-align:start;writing-mode:lr-tb;text-anchor:start"
         id="path3363"
         inkscape:connector-curvature="0" />
      <path
         d="m 295.53018,321.66077 c 0.06,0 0.15,-0.03 0.3,-0.09 1.17,-0.33 1.5,-0.66 2.31,-1.5 l 0.12,-0.15 c 0.12,-0.24 0.45,-0.51 0.48,-0.75 l 0.15,-1.02 c 0.03,-0.03 0.06,-0.06 0.06,-0.15 0,-1.44 -1.68,-2.19 -2.88,-2.19 -0.54,0 -0.93,0.24 -1.38,0.51 -0.09,0.03 -0.36,0.15 -0.36,0.15 l -0.12,-0.03 c 0.21,-0.24 0.39,-0.66 0.48,-0.87 0.03,0 0.03,-0.06 0.03,-0.09 0,-0.12 -0.03,-0.18 -0.21,-0.18 -0.54,0 -0.54,0.72 -1.05,0.75 -0.03,0 -0.3,-0.12 -0.33,-0.12 -0.96,-0.33 -1.74,-0.21 -1.74,-1.41 0,-0.84 1.11,-1.77 1.89,-1.77 l 0.18,0 0.03,0.12 c 0.06,0.03 0.15,0.45 0.15,0.51 0.06,0.15 0.78,0.57 0.99,0.66 1.56,-0.21 2.64,-0.51 3.57,-1.83 0,-0.06 0.06,-0.15 0.06,-0.15 0,-0.03 -0.06,-0.06 -0.09,-0.06 -0.15,0 -0.48,0.27 -0.54,0.33 -0.3,0.12 -0.9,0.39 -1.2,0.39 -0.48,0 -0.84,-0.66 -0.84,-1.08 0,-0.36 0.12,-0.66 0.27,-0.81 0.27,-0.3 0.78,-0.42 0.78,-0.57 0,0 -0.06,-0.09 -0.06,-0.12 l -0.18,0 c -0.57,0 -0.87,0.39 -1.38,0.81 -0.18,0.12 -0.42,0.15 -0.63,0.24 -0.33,0.18 -0.63,0.42 -0.93,0.66 -0.42,0.39 -1.29,0.78 -1.77,0.99 -0.09,0 -0.3,0.06 -0.3,0.06 -0.48,0.36 -1.41,1.14 -1.53,1.65 -0.09,0.3 -0.06,0.24 -0.15,0.45 -0.06,0.09 -0.24,0.3 -0.24,0.42 -0.03,0.15 -0.09,0.57 -0.09,0.63 0.12,0.84 0.93,1.41 1.74,1.41 0.84,0 1.98,-0.33 2.76,-0.63 -0.15,0.45 -0.93,0.48 -0.93,0.78 0,0.12 0,0.18 0.18,0.18 0.24,0 1.14,-0.3 1.38,-0.42 l 0.54,0 c 1.32,0 2.01,0.66 2.01,1.98 0,0.54 -0.54,1.29 -0.9,1.74 l -0.12,0.09 c -0.15,0.09 -0.3,0.18 -0.36,0.18 0,0 -0.21,0.06 -0.27,0.09 l 0.12,0.21 z m -1.53,1.71 c 0,0.21 -0.99,1.08 -1.26,1.44 -0.15,0.24 -0.24,0.78 -0.42,1.05 0.06,0 0.12,0.03 0.18,0.03 0.24,0 0.12,-0.03 0.21,-0.3 0.24,-0.57 0.78,-0.87 1.17,-1.38 0.54,-0.63 1.02,-1.29 1.5,-1.98 0.06,-0.09 0.18,-0.24 0.18,-0.33 0,-0.24 -0.3,-0.24 -0.42,-0.39 -0.66,-0.42 -1.26,-0.9 -2.1,-0.9 l -0.27,0 c -0.27,0 -0.63,0.12 -0.69,0.3 -0.06,-0.09 -0.12,-0.18 -0.21,-0.18 -1.44,0 -1.95,0.3 -2.91,1.29 -0.24,0.3 -0.75,0.69 -0.75,1.11 0,0.03 0.09,0.03 0.12,0.03 0.21,0 0.39,-0.33 0.54,-0.42 0.81,-0.33 1.62,-0.6 2.46,-0.6 0.24,0 0.57,0.06 0.84,0.09 0.18,0.06 0.57,0.18 0.78,0.18 0.21,0 0.63,0.42 0.72,0.51 0.06,0.03 0.33,0.33 0.33,0.45 z m -1.62,-1.35 -0.09,0.09 -0.09,-0.12 0.09,-0.09 0.09,0.12 z m 3.36,-5.58 -0.12,0.12 -0.06,-0.09 0.09,-0.12 0.09,0.09 z m -3.18,4.53 0.09,0.03 0,0.18 -0.12,-0.06 0.03,-0.15 z m 5.85,-3.81 0.03,0.09 -0.09,0.15 -0.06,-0.12 0.12,-0.12 z m -8.28,4.26 0.09,0.09 -0.09,0.09 -0.09,-0.06 0.09,-0.12 z m 7.5,-2.07 -0.06,0.09 -0.12,-0.09 0.12,-0.09 0.06,0.09 z m -7.23,-4.68 0.06,0.09 -0.06,0.12 -0.09,-0.12 0.09,-0.09 z m 7.98,2.16 -0.03,0.09 -0.15,-0.12 0.09,-0.06 0.09,0.09 z m 0.21,0.87 0.09,0.03 -0.06,0.15 -0.09,-0.09 0.06,-0.09 z m -5.58,-1.32 -0.06,0.09 -0.09,-0.06 0.06,-0.12 0.09,0.09 z m -3.81,5.79 -0.06,0.09 -0.09,-0.09 0.09,-0.09 0.06,0.09 z m 7.92,-1.92 -0.06,0.09 -0.09,-0.06 0.09,-0.12 0.06,0.09 z m -5.04,-7.41 -0.06,0.09 -0.09,-0.09 0.09,-0.09 0.06,0.09 z m 3.3,3.66 -0.06,0.09 -0.09,-0.09 0.03,-0.09 0.12,0.09 z m 0.27,-3.36 0.09,0.09 -0.09,0.06 -0.09,-0.09 0.09,-0.06 z m 2.61,3.75 -0.09,0.09 -0.09,-0.09 0.09,-0.06 0.09,0.06 z m -4.35,-4.95 -0.06,0.09 -0.09,-0.12 0.09,-0.06 0.06,0.09 z m -2.52,1.26 -0.06,0.09 -0.09,-0.09 0.09,-0.09 0.06,0.09 z m 0.42,7.59 0.09,0.09 -0.06,0.09 -0.09,-0.09 0.06,-0.09 z m 0.42,-4.62 -0.06,0.09 -0.12,-0.03 0.06,-0.09 0.12,0.03 z m 0.9,-3.78 -0.03,0.09 -0.09,-0.09 0.06,-0.09 0.06,0.09 z m 0.63,3.93 -0.06,0.09 -0.06,-0.09 0.06,-0.09 0.06,0.09 z m -0.24,8.1 -0.12,0.06 0,-0.15 0.12,0.09 z"
         style="font-style:normal;font-variant:normal;font-weight:normal;font-stretch:normal;font-size:30px;line-height:125%;font-family:'P22 Declaration';-inkscape-font-specification:'P22 Declaration, Normal';text-align:start;writing-mode:lr-tb;text-anchor:start"
         id="path3365"
         inkscape:connector-curvature="0" />
    </g>
  </g>
</svg>
